<?xml version="1.0" standalone="no"?>
<!DOCTYPE svg PUBLIC "-//W3C//DTD SVG 20010904//EN"
 "http://www.w3.org/TR/2001/REC-SVG-20010904/DTD/svg10.dtd">
<svg version="1.0" xmlns="http://www.w3.org/2000/svg"
 width="800.000000pt" height="600.000000pt" viewBox="0 0 800.000000 600.000000"
 preserveAspectRatio="xMidYMid meet">

<g transform="translate(0.000000,600.000000) scale(0.100000,-0.100000)"
fill="#000000" stroke="none">
<path d="M0 3000 l0 -3000 4000 0 4000 0 0 3000 0 3000 -4000 0 -4000 0 0
-3000z m3120 1480 c0 -4 -17 -14 -37 -24 -48 -20 -98 -53 -135 -88 -33 -31
-48 -35 -48 -14 0 17 100 98 154 125 35 18 66 19 66 1z m256 -29 c112 -53 205
-160 235 -273 12 -43 15 -46 52 -52 56 -9 94 -32 112 -66 22 -43 19 -50 -25
-50 -27 0 -47 7 -60 20 -29 29 -52 26 -48 -6 2 -22 11 -29 46 -40 52 -15 80
-38 98 -80 31 -73 -22 -157 -107 -170 -32 -5 -39 -11 -39 -29 0 -26 -25 -52
-34 -36 -4 6 -4 21 0 35 5 22 2 25 -33 32 -21 3 -45 12 -53 20 -13 11 -18 6
-34 -34 -50 -122 -117 -180 -217 -189 -50 -5 -61 -3 -57 8 3 8 27 17 57 22 29
4 65 14 80 23 35 21 88 92 109 146 9 23 20 46 24 49 5 3 2 23 -5 44 l-14 39
-48 -92 c-49 -96 -80 -128 -149 -157 -27 -12 -42 -13 -49 -6 -13 13 -15 11 55
44 56 27 104 77 74 77 -7 0 -19 7 -27 16 -11 14 -16 11 -45 -20 -18 -20 -38
-36 -43 -36 -16 0 -13 37 3 43 8 3 22 17 31 31 16 23 15 26 -6 56 l-23 31 -12
-35 c-16 -44 -54 -96 -71 -96 -7 0 -13 4 -13 9 0 4 -11 6 -25 3 -32 -6 -31
-14 5 -55 35 -41 37 -47 10 -47 -21 0 -70 65 -88 119 -15 42 -16 101 -2 101 6
0 10 47 9 123 -1 111 -2 119 -14 92 -8 -16 -17 -56 -21 -87 -6 -55 -15 -70
-29 -48 -3 5 -1 37 5 71 30 163 117 259 235 259 111 0 212 -109 233 -253 l8
-52 7 58 c8 66 -1 89 -68 177 -64 83 -108 120 -156 134 -43 13 -65 36 -33 36
43 0 100 -27 137 -65 51 -53 123 -146 138 -179 15 -32 35 -28 31 5 -4 40 -53
131 -93 174 -79 86 -200 117 -297 75 -87 -37 -216 -200 -197 -248 5 -12 11 -6
25 26 21 47 106 142 126 142 21 0 18 -7 -35 -68 -76 -88 -84 -112 -89 -234 -4
-98 -3 -108 13 -108 15 0 17 -7 12 -48 -4 -38 -1 -59 16 -95 24 -50 126 -162
158 -172 10 -4 19 -10 19 -14 0 -31 -51 -9 -116 51 -49 45 -81 92 -100 147
l-12 36 -7 -37 c-6 -31 -2 -46 20 -85 131 -222 349 -245 491 -52 33 45 54 55
54 26 0 -20 -119 -136 -164 -160 -60 -32 -193 -31 -254 1 -66 35 -120 95 -160
180 -22 45 -43 77 -52 77 -10 0 -16 12 -18 33 -2 20 -9 32 -18 32 -20 0 -14
-30 32 -167 39 -115 40 -123 19 -123 -8 0 -15 5 -15 12 0 6 -11 35 -25 64 -27
57 -55 154 -55 191 0 22 -4 23 -65 23 -53 0 -66 3 -75 19 -23 44 -12 71 64
155 59 65 74 89 80 123 11 71 56 204 72 210 22 8 26 -1 13 -33 -17 -45 -49
-157 -45 -161 9 -9 56 18 56 33 0 27 60 131 99 169 20 21 63 51 96 68 52 27
71 31 135 32 95 0 137 -21 215 -107 53 -58 105 -145 105 -175 0 -7 9 -13 20
-13 26 0 25 8 -11 96 -56 134 -176 225 -314 240 -76 7 -88 11 -79 25 13 21
139 3 210 -30z m-2682 -37 c19 -19 21 -55 4 -72 -10 -10 -13 -120 -15 -454 -1
-268 -6 -445 -12 -451 -5 -5 -17 -7 -26 -3 -15 5 -15 45 -9 446 l7 441 -21 20
c-28 25 -28 34 3 64 28 29 47 31 69 9z m3841 -53 c65 -29 115 -104 115 -171 0
-66 -56 -150 -115 -171 -22 -8 -36 -21 -40 -37 -3 -14 -15 -32 -27 -41 -28
-23 -26 -64 6 -101 23 -29 26 -39 26 -115 0 -84 -12 -115 -43 -115 -37 1 -40
15 -43 205 l-3 188 -39 17 c-65 29 -105 95 -104 172 1 58 18 101 56 137 54 53
138 65 211 32z m1083 -14 l3 -26 -118 -3 c-97 -2 -118 -6 -118 -18 0 -17 -1
-16 138 -19 96 -1 97 -1 97 -26 0 -24 -3 -25 -61 -25 -46 0 -67 5 -86 20 -31
24 -61 25 -91 4 -20 -13 -22 -24 -22 -95 0 -43 -4 -79 -8 -79 -5 0 -19 11 -32
25 -27 29 -40 32 -40 10 0 -9 30 -44 66 -80 67 -66 79 -97 38 -103 -14 -2 -45
21 -102 78 l-82 80 -265 0 c-212 0 -267 3 -271 13 -3 8 -1 33 5 56 13 59 -7
133 -48 175 -17 18 -28 35 -24 39 3 4 234 6 512 4 l506 -3 3 -27z m1150 -35
c4 -30 -26 -42 -44 -17 -10 14 -11 22 -2 32 16 20 42 12 46 -15z m-5917 -12
c52 -10 153 -35 224 -55 72 -20 195 -49 274 -65 79 -16 147 -32 151 -37 11
-12 -7 -332 -19 -347 -12 -14 -153 -49 -246 -62 -27 -4 -60 -10 -72 -15 -13
-5 -83 -16 -155 -24 -114 -14 -198 -30 -270 -51 -21 -6 -22 37 -11 434 5 181
9 242 18 242 7 0 55 -9 106 -20z m6259 -14 c0 -18 6 -26 22 -28 30 -4 34 -26
6 -30 -21 -3 -23 -8 -23 -63 0 -52 3 -60 20 -63 35 -7 40 -21 9 -32 -20 -8
-35 -8 -51 -1 -21 10 -23 17 -23 80 0 56 -4 72 -17 80 -17 10 -17 12 0 25 9 7
17 23 17 35 0 14 6 21 20 21 15 0 20 -7 20 -24z m-118 -36 c28 -28 30 -36 25
-78 -7 -60 -44 -96 -94 -90 -30 4 -33 2 -33 -23 0 -19 6 -28 21 -32 12 -3 18
-10 14 -17 -9 -15 -97 -9 -103 8 -2 6 3 12 12 12 23 0 24 208 1 216 -31 12
-14 25 30 23 24 -2 48 0 51 4 16 15 47 5 76 -23z m-520 -11 c20 -24 13 -49
-13 -49 -18 0 -23 10 -20 38 3 20 -37 14 -49 -7 -5 -11 -10 -34 -10 -51 0 -17
5 -40 10 -51 13 -23 52 -25 70 -4 16 19 30 19 30 1 0 -33 -70 -57 -115 -40
-20 8 -45 56 -45 88 0 40 22 78 55 92 35 15 63 10 87 -17z m-402 13 c0 -5 -27
-21 -60 -37 -33 -16 -60 -32 -60 -36 0 -4 27 -22 60 -40 33 -17 60 -36 60 -40
0 -5 -2 -9 -5 -9 -6 0 -148 70 -154 76 -8 8 23 33 79 63 56 31 80 38 80 23z
m210 -29 c0 -36 -15 -44 -25 -13 -4 13 -15 20 -30 20 -44 0 -40 -31 5 -45 38
-11 60 -35 60 -66 0 -39 -34 -60 -91 -55 -39 3 -44 6 -47 31 -5 40 12 51 32
21 20 -31 66 -36 66 -8 0 11 -16 25 -42 37 -36 17 -44 25 -46 52 -4 40 26 62
79 60 37 -1 39 -3 39 -34z m372 20 c9 -11 7 -18 -6 -31 -16 -15 -18 -16 -29
-1 -23 30 -37 10 -37 -52 0 -44 4 -61 15 -65 31 -12 13 -24 -35 -24 -44 0 -67
12 -40 22 14 4 15 131 1 136 -6 2 -11 10 -11 17 0 20 125 18 142 -2z m116 -81
c2 -45 7 -82 12 -82 6 0 10 -4 10 -10 0 -5 -20 -10 -45 -10 -25 0 -45 5 -45
10 0 6 5 10 10 10 6 0 10 28 10 65 0 49 -4 67 -15 71 -8 4 -15 10 -15 14 0 8
45 19 65 15 6 -1 11 -38 13 -83z m627 -3 c0 -12 -125 -87 -147 -88 -26 -2 1
21 59 52 l67 35 -49 31 c-27 17 -57 33 -67 37 -10 3 -16 10 -12 15 8 13 149
-64 149 -82z m-5549 57 c21 -29 6 -49 -30 -41 -79 18 -116 -4 -116 -72 0 -30
6 -49 20 -63 21 -21 69 -26 99 -11 22 12 44 -1 39 -25 -5 -29 -76 -48 -126
-34 -110 29 -136 184 -42 248 29 20 44 23 89 19 36 -2 58 -10 67 -21z m292 -3
c3 -18 -1 -23 -20 -23 -40 0 -48 -18 -48 -106 0 -86 -14 -119 -45 -108 -12 5
-15 26 -15 93 0 89 -8 111 -41 111 -10 0 -25 7 -34 16 -12 13 -13 19 -4 30 9
11 34 14 108 12 91 -3 96 -4 99 -25z m3319 15 c10 -16 10 -19 12 -213 l1 -160
46 -24 c61 -33 99 -96 98 -166 -3 -171 -210 -253 -325 -128 -40 42 -52 72 -53
128 -1 70 37 133 98 166 25 13 46 30 46 38 0 7 14 29 30 48 35 39 33 59 -7
107 -21 26 -24 37 -22 110 2 88 9 106 45 106 12 0 26 -6 31 -12z m-3052 -23
c0 -17 -8 -21 -60 -25 -56 -5 -60 -7 -63 -32 -3 -26 -2 -27 55 -30 51 -3 58
-6 61 -25 4 -24 -10 -30 -78 -35 -31 -3 -35 -7 -38 -33 -2 -16 -8 -36 -14 -42
-15 -18 -45 -16 -52 3 -8 21 -8 208 0 229 5 13 21 15 98 13 83 -3 91 -5 91
-23z m3214 -28 c8 -10 7 -18 -2 -31 -10 -13 -25 -17 -67 -14 -52 3 -55 5 -58
31 -3 27 -3 27 56 27 37 0 64 -5 71 -13z m0 -90 c8 -10 7 -18 -2 -31 -10 -13
-25 -17 -67 -14 -52 3 -55 5 -58 31 -3 27 -3 27 56 27 37 0 64 -5 71 -13z
m-3894 -197 c113 -41 165 -55 270 -69 195 -26 195 -33 -2 -64 -92 -15 -251
-38 -353 -52 -102 -14 -209 -30 -239 -35 -37 -7 -58 -7 -67 1 -23 19 -4 36 64
54 91 25 129 44 136 69 3 12 6 52 6 90 0 81 -17 81 185 6z m2864 -42 c87 -88
83 -87 405 -80 232 5 239 4 232 -14 -14 -35 -27 -136 -20 -157 3 -12 27 -43
52 -70 l46 -47 -519 2 -520 3 0 25 0 25 118 3 c94 2 117 5 117 17 0 12 -23 15
-117 17 l-118 3 0 25 c0 23 4 25 59 28 49 3 62 0 78 -17 22 -24 75 -28 102 -8
15 11 19 29 20 95 0 45 4 82 7 82 3 0 16 -11 29 -25 13 -14 27 -25 32 -25 21
0 2 30 -58 91 -46 46 -65 72 -61 83 12 32 46 15 116 -56z m1981 41 c0 -9 -67
-198 -117 -329 -3 -10 -7 -11 -10 -3 -2 6 17 71 42 145 26 73 51 148 57 166
11 31 28 44 28 21z m137 -43 c-4 -9 -16 -16 -27 -16 -15 0 -20 7 -20 24 0 13
6 26 13 29 18 7 41 -19 34 -37z m-2317 -62 c0 -23 -3 -24 -65 -24 -62 0 -65 1
-65 24 0 23 4 25 53 28 68 4 77 1 77 -28z m1980 22 c0 -3 -27 -19 -60 -37 -33
-17 -60 -35 -60 -40 0 -4 27 -22 60 -40 33 -17 60 -36 60 -40 0 -13 -3 -12
-85 28 -41 21 -75 43 -75 49 0 6 30 28 68 47 61 33 92 44 92 33z m340 -95 c0
-44 5 -83 10 -86 23 -14 7 -25 -35 -25 -42 0 -58 11 -35 25 6 3 10 35 10 70 0
48 -4 64 -16 69 -25 10 -6 26 32 26 l34 0 0 -79z m120 69 c0 -7 7 -7 20 0 33
18 73 8 87 -20 7 -14 13 -51 13 -82 0 -32 5 -58 10 -58 6 0 10 -4 10 -10 0 -5
-20 -10 -45 -10 -25 0 -45 5 -45 10 0 6 5 10 10 10 7 0 10 25 8 67 -3 58 -6
68 -22 71 -29 6 -46 -25 -46 -80 0 -34 5 -50 15 -54 31 -12 13 -24 -35 -24
-27 0 -50 5 -50 10 0 6 7 10 15 10 22 0 22 135 -1 144 -8 3 -12 10 -9 16 8 13
65 13 65 0z m321 0 c11 0 19 -4 19 -10 0 -5 -7 -10 -15 -10 -10 0 -15 -10 -15
-34 0 -39 -14 -53 -58 -62 -47 -9 -39 -24 12 -24 27 0 51 -6 60 -16 24 -23 20
-70 -6 -88 -30 -21 -121 -21 -142 0 -20 19 -21 48 -2 63 8 7 12 21 9 31 -3 11
-1 26 5 33 7 8 6 18 -4 31 -20 28 -17 53 7 77 18 18 29 20 67 15 24 -3 53 -6
63 -6z m174 -48 c39 -20 70 -43 70 -50 0 -16 -142 -94 -150 -82 -5 8 47 43 83
54 11 4 26 13 32 21 10 12 0 20 -54 47 -36 18 -66 36 -66 40 0 13 12 9 85 -30z
m-2937 -39 c-3 -25 -8 -28 -42 -31 -55 -5 -86 5 -86 27 0 27 9 31 72 31 59 0
59 0 56 -27z m-778 -61 c0 -27 -51 -102 -100 -146 -24 -21 -80 -56 -126 -78
-131 -61 -263 -63 -394 -7 -44 19 -68 44 -55 57 2 3 38 -12 79 -33 l73 -37
120 10 c102 8 130 14 186 41 77 37 142 98 175 164 24 48 42 61 42 29z m1472
-796 c-10 -92 64 -168 174 -181 67 -7 73 -3 117 76 12 22 21 29 28 22 7 -7 0
-30 -22 -73 l-33 -62 24 -45 c27 -50 94 -113 122 -113 10 0 41 11 68 25 57 29
60 29 60 13 0 -7 -22 -26 -50 -41 -65 -36 -82 -83 -56 -151 30 -77 49 -94 116
-102 61 -7 83 -24 31 -24 -80 0 -141 -67 -141 -156 0 -67 14 -91 69 -118 27
-14 53 -31 56 -36 14 -23 -6 -22 -58 4 -70 34 -88 33 -133 -6 -65 -57 -93
-157 -59 -202 37 -49 5 -62 -34 -15 -38 46 -102 51 -176 15 -63 -31 -95 -70
-102 -127 -7 -52 -27 -45 -33 13 -10 86 -69 136 -169 145 l-58 6 -33 -42 c-18
-22 -37 -41 -42 -41 -13 0 -9 33 7 54 30 40 18 72 -59 160 -56 63 -82 70 -138
36 -35 -21 -68 -26 -68 -10 0 6 22 22 50 38 27 15 53 35 56 45 9 28 -16 147
-38 185 -19 31 -33 38 -87 44 -34 4 -40 28 -7 28 55 0 74 16 92 76 27 94 3
188 -57 222 -16 10 -29 23 -29 30 0 15 0 15 43 -3 46 -19 106 -19 131 0 11 8
28 15 38 15 28 0 65 28 89 66 l20 34 -35 66 c-19 37 -33 71 -30 76 9 14 21 1
55 -60 17 -31 39 -63 47 -69 28 -23 84 -14 142 21 61 36 80 63 80 116 0 49 11
82 24 77 6 -2 10 -16 8 -31z m1828 -74 c26 -27 28 -35 34 -143 4 -63 6 -231 4
-374 -3 -223 -5 -260 -18 -260 -13 0 -15 49 -18 365 -3 405 -3 400 -68 400
-63 0 -67 -17 -64 -293 5 -392 2 -467 -14 -467 -12 0 -15 54 -18 348 -2 191 1
362 5 380 5 21 20 40 40 52 45 28 83 25 117 -8z m-4792 -70 l53 -7 6 -423 c3
-321 2 -426 -7 -437 -18 -21 -1301 -22 -1318 -2 -13 15 -20 845 -8 865 5 9
155 12 614 11 334 -1 631 -4 660 -7z m4592 -152 c0 -18 -7 -20 -74 -20 -72 0
-94 8 -81 30 3 6 40 10 81 10 67 0 74 -2 74 -20z m10 -95 c0 -12 -16 -15 -80
-15 -73 0 -91 6 -73 23 3 4 39 7 80 7 58 0 73 -3 73 -15z m-3970 -80 c0 -17
-14 -26 -54 -34 l-31 -7 -5 -104 c-5 -104 -5 -105 -30 -105 -25 0 -25 1 -30
104 l-5 105 -35 9 c-38 10 -51 23 -43 43 3 9 33 14 101 16 101 3 132 -3 132
-27z m232 4 c10 -5 25 -23 34 -40 18 -36 12 -74 -17 -104 -18 -21 -18 -21 6
-57 33 -48 32 -68 -2 -68 -18 0 -38 13 -67 45 -57 61 -86 58 -86 -10 0 -25
-21 -38 -45 -29 -13 5 -15 27 -13 138 l3 131 35 7 c42 8 126 1 152 -13z m202
15 c23 -9 24 -255 1 -274 -12 -10 -18 -10 -30 0 -20 17 -22 265 -2 273 6 3 13
6 14 6 1 1 8 -2 17 -5z m184 -51 c11 -27 23 -58 27 -70 4 -15 14 -23 30 -23
20 0 27 11 50 70 23 60 30 70 51 70 14 0 27 -7 30 -15 7 -18 -83 -244 -103
-261 -7 -6 -24 -9 -37 -7 -20 4 -31 20 -57 87 -18 44 -41 98 -51 119 -23 46
-16 77 16 77 19 0 28 -10 44 -47z m362 27 c6 -12 9 -66 8 -131 -2 -92 -6 -114
-20 -122 -12 -8 -21 -7 -32 2 -13 11 -16 36 -16 136 0 67 3 125 7 128 13 14
43 6 53 -13z m2980 -14 c0 -21 -20 -25 -89 -19 -42 4 -61 10 -61 19 0 11 18
14 75 14 57 0 75 -3 75 -14z m172 2 c3 -7 4 -93 3 -191 -1 -157 -3 -180 -18
-188 -11 -7 -24 -6 -37 1 -19 10 -20 21 -20 194 0 100 3 186 7 189 11 12 61 8
65 -5z m-173 -87 c26 -16 2 -28 -61 -30 -65 -1 -95 9 -84 28 8 13 125 15 145
2z m6 -106 c0 -11 -129 -20 -152 -11 -8 3 -11 11 -8 16 9 14 160 9 160 -5z
m329 -123 c3 -5 -1 -32 -9 -61 -12 -46 -12 -53 2 -58 9 -4 19 1 25 10 5 10 16
17 25 17 12 0 14 -7 9 -30 -7 -37 15 -51 43 -26 35 32 57 10 25 -25 -15 -16
-15 -20 0 -41 97 -139 -239 -288 -472 -209 -149 51 -215 130 -166 200 16 22
16 25 0 52 -20 33 -4 50 24 24 21 -19 57 -16 51 6 -13 48 -13 59 1 59 8 0 20
-12 27 -26 7 -16 18 -24 29 -22 18 4 19 16 6 82 -10 53 16 45 34 -10 l13 -40
137 1 137 0 14 53 c13 47 31 66 45 44z m-4331 -11 c9 -1 17 -8 17 -16 0 -12
-17 -15 -94 -15 -94 0 -123 9 -89 29 15 8 46 9 166 2z m815 -8 c-3 -16 -15
-18 -93 -18 -78 0 -90 2 -93 18 -3 15 7 17 93 17 86 0 96 -2 93 -17z m-530 -5
c-3 -9 -35 -14 -101 -16 -82 -2 -97 0 -97 13 0 12 17 15 101 15 76 0 100 -3
97 -12z m267 3 c11 -19 -22 -26 -105 -22 -92 3 -95 4 -85 20 8 14 181 15 190
2z m535 -6 c0 -12 -16 -15 -75 -17 -41 -1 -83 -2 -92 -2 -10 -1 -19 7 -21 17
-3 15 6 17 92 17 79 0 96 -3 96 -15z m250 0 c0 -12 -17 -15 -95 -15 -78 0 -95
3 -95 15 0 12 17 15 95 15 78 0 95 -3 95 -15z m-2944 -251 c4 -15 3 -39 -2
-53 -9 -24 -15 -26 -69 -29 -94 -5 -105 1 -105 52 0 23 3 46 7 49 3 4 41 7 84
7 77 0 79 -1 85 -26z m958 13 c13 -9 17 -23 14 -52 l-3 -40 -85 0 -85 0 -3 44
c-2 28 1 47 10 52 21 14 132 10 152 -4z"/>
<path d="M3155 4216 c-17 -7 -46 -31 -65 -52 l-34 -39 40 -5 c31 -4 45 -1 67
17 36 29 76 29 112 1 20 -16 39 -21 64 -19 20 1 38 4 40 6 2 2 -7 18 -19 36
-42 59 -138 84 -205 55z"/>
<path d="M3179 4111 c-22 -17 -22 -21 -10 -45 16 -29 33 -33 51 -11 16 20 44
19 61 -1 7 -9 16 -50 20 -93 l6 -76 1 91 c2 90 2 90 -31 122 -38 37 -65 40
-98 13z"/>
<path d="M3401 3950 l1 -135 20 43 c13 29 24 42 34 38 9 -3 14 1 14 14 0 12
-5 17 -13 15 -8 -4 -16 15 -25 61 -23 119 -31 108 -31 -36z"/>
<path d="M3593 4043 c-19 -7 -17 -63 2 -63 10 0 15 11 15 35 0 19 -1 35 -2 34
-2 0 -9 -3 -15 -6z"/>
<path d="M3232 4028 c-17 -17 -15 -24 10 -58 27 -37 40 -38 33 -5 -3 14 -7 36
-10 50 -6 28 -15 31 -33 13z"/>
<path d="M2837 3982 c-10 -11 -17 -36 -17 -60 0 -35 3 -42 20 -42 18 0 20 7
20 60 0 33 -2 60 -3 60 -2 0 -11 -8 -20 -18z"/>
<path d="M3141 3944 c0 -11 3 -14 6 -6 3 7 2 16 -1 19 -3 4 -6 -2 -5 -13z"/>
<path d="M2773 3918 c-23 -30 -24 -38 -5 -38 13 0 21 9 24 25 6 27 -4 33 -19
13z"/>
<path d="M3170 3902 c0 -13 -6 -22 -15 -22 -12 0 -15 -14 -15 -67 l1 -68 24
28 c13 15 29 46 35 69 10 37 9 43 -9 62 l-21 20 0 -22z"/>
<path d="M3584 3896 c-3 -8 -4 -29 -2 -48 2 -25 8 -34 26 -36 20 -3 22 0 22
47 0 45 -3 51 -20 51 -11 0 -23 -6 -26 -14z"/>
<path d="M3650 3860 c0 -54 14 -65 43 -32 22 24 21 45 -1 65 -32 29 -42 21
-42 -33z"/>
<path d="M4419 4341 c-46 -15 -78 -42 -99 -85 -25 -53 -25 -86 0 -137 28 -53
72 -79 135 -79 154 0 211 191 85 281 -30 22 -86 31 -121 20z m109 -63 c23 -20
42 -72 35 -99 -33 -129 -213 -117 -213 15 0 89 109 140 178 84z"/>
<path d="M5126 4313 c-3 -4 -6 -15 -6 -25 0 -17 -12 -18 -179 -18 -178 0 -179
0 -183 -23 -9 -46 -6 -47 183 -47 172 0 179 -1 179 -20 0 -11 5 -20 11 -20 17
0 99 62 99 75 0 14 -96 86 -104 78z"/>
<path d="M1058 4154 c-16 -8 -28 -18 -28 -22 0 -4 34 -29 74 -55 67 -43 77
-47 98 -36 46 23 50 31 28 46 -19 14 -140 83 -143 83 -1 -1 -14 -8 -29 -16z"/>
<path d="M963 4102 c-18 -9 -33 -19 -33 -23 0 -4 34 -28 75 -54 70 -44 78 -46
105 -35 60 25 56 35 -29 84 -44 25 -81 45 -83 45 -2 -1 -18 -9 -35 -17z"/>
<path d="M907 4053 c-4 -3 -7 -45 -7 -92 0 -97 -9 -84 103 -148 33 -18 61 -33
63 -33 2 0 4 42 4 93 l0 94 -47 26 c-27 15 -62 36 -79 47 -17 11 -34 17 -37
13z"/>
<path d="M1170 4006 l-75 -43 -3 -91 c-1 -51 0 -92 4 -92 10 0 128 63 147 78
14 12 17 32 17 104 0 48 -3 88 -7 87 -5 0 -42 -20 -83 -43z"/>
<path d="M6902 4238 c-7 -7 -12 -36 -12 -65 0 -43 4 -54 21 -63 32 -18 59 12
59 65 0 58 -38 93 -68 63z"/>
<path d="M5349 3798 c-132 -76 -85 -272 68 -285 61 -5 110 20 140 73 42 73 23
152 -48 203 -51 38 -106 41 -160 9z m152 -57 c24 -24 29 -38 29 -76 0 -40 -5
-52 -31 -76 -70 -66 -180 -15 -179 83 1 87 118 132 181 69z"/>
<path d="M4698 3665 c-27 -20 -48 -39 -48 -44 0 -11 85 -81 99 -81 6 0 11 9
11 20 0 19 7 20 103 22 56 1 136 1 179 -1 70 -3 77 -1 83 18 3 12 3 31 0 42
-7 21 -11 22 -125 15 -156 -9 -240 0 -240 25 0 26 -8 24 -62 -16z"/>
<path d="M7054 3756 c-3 -8 -4 -25 -2 -38 4 -32 42 -32 46 0 6 38 -32 70 -44
38z"/>
<path d="M7040 3584 c-12 -14 -12 -18 5 -30 36 -27 90 -12 83 22 -4 26 -69 32
-88 8z"/>
<path d="M5078 2603 c-1 -54 -3 -109 -4 -123 -1 -14 -3 -31 -3 -37 -1 -7 -5
-13 -11 -13 -6 0 -10 47 -10 120 0 66 -2 120 -4 120 -2 0 -26 -11 -53 -25 -27
-13 -68 -27 -91 -31 -50 -8 -52 -18 -12 -82 32 -52 38 -76 18 -70 -11 4 -57
66 -87 117 -7 11 -19 6 -57 -26 -27 -22 -67 -47 -89 -55 -21 -9 -40 -19 -42
-24 -2 -5 24 -25 57 -43 33 -19 60 -38 60 -41 0 -20 -20 -16 -76 15 -34 19
-67 35 -74 35 -7 0 -9 -21 -4 -73 5 -55 3 -81 -10 -111 -9 -21 -16 -40 -16
-42 0 -2 42 -4 94 -4 52 0 97 -4 100 -9 6 -9 -64 -21 -130 -21 -23 0 -46 -5
-49 -11 -4 -5 2 -32 13 -58 12 -26 24 -70 28 -99 3 -29 11 -52 16 -52 6 0 48
18 95 40 95 44 93 44 93 31 0 -5 -38 -30 -85 -56 -47 -25 -85 -48 -85 -51 0
-3 22 -25 48 -49 26 -24 57 -59 67 -79 11 -20 23 -36 26 -36 4 0 26 32 49 70
23 39 47 73 52 76 22 14 16 -8 -21 -77 -23 -41 -41 -80 -41 -86 0 -8 13 -13
34 -13 20 0 63 -15 102 -35 81 -42 84 -40 84 63 0 57 3 72 15 72 12 0 15 -16
15 -85 0 -47 3 -85 7 -85 3 0 35 14 70 30 37 18 79 30 103 30 22 0 40 5 40 10
0 6 -22 46 -50 90 -27 44 -50 84 -50 90 0 26 23 4 70 -64 27 -41 54 -77 60
-81 6 -3 19 14 29 39 11 25 39 63 62 86 49 47 54 39 -63 100 -43 23 -78 45
-78 51 0 15 15 11 99 -31 44 -22 85 -40 90 -40 6 0 11 19 11 43 1 23 9 67 20
97 10 30 16 58 14 62 -3 5 -31 8 -63 8 -32 0 -73 3 -90 6 -58 12 -31 24 54 24
52 0 85 4 85 10 0 6 -9 28 -20 50 -11 22 -20 57 -20 80 0 22 -5 40 -10 40 -6
0 -28 -11 -50 -25 -46 -29 -50 -30 -50 -10 0 8 20 26 45 41 25 14 45 30 45 36
0 5 -12 19 -26 31 -26 22 -41 38 -80 85 l-21 26 -38 -72 c-35 -68 -55 -89 -55
-59 0 8 16 46 35 86 19 39 35 75 35 80 0 4 -22 11 -49 14 -53 6 -119 35 -140
61 -25 30 -31 16 -33 -81z m125 -170 c68 -35 137 -87 137 -103 0 -9 -18 -31
-40 -49 -22 -17 -40 -38 -40 -45 0 -6 20 -26 45 -44 52 -37 58 -64 18 -87 -57
-30 -73 -51 -73 -93 0 -38 -2 -40 -84 -90 -47 -29 -94 -52 -105 -52 -22 0 -97
33 -154 69 -27 16 -36 30 -41 61 -6 36 -12 43 -61 71 -71 40 -74 66 -11 111
24 17 42 36 40 42 -3 7 -21 20 -40 31 -48 26 -58 53 -30 84 32 35 132 101 154
101 11 0 39 -16 63 -35 24 -19 51 -35 59 -34 8 0 35 18 60 39 51 45 58 47 103
23z"/>
<path d="M5114 2375 c-22 -21 -34 -39 -28 -44 5 -5 37 -23 71 -41 l62 -32 35
27 c20 15 36 33 36 40 0 12 -109 85 -128 85 -6 0 -27 -16 -48 -35z"/>
<path d="M4853 2359 c-35 -23 -63 -45 -63 -49 0 -11 66 -60 81 -60 18 0 129
73 129 85 0 8 -71 65 -82 65 -1 0 -31 -19 -65 -41z"/>
<path d="M4975 2264 c-27 -19 -51 -38 -52 -42 -4 -10 54 -46 98 -62 36 -13 39
-12 94 24 31 21 55 43 53 49 -5 15 -106 67 -127 66 -9 0 -38 -16 -66 -35z"/>
<path d="M5155 2169 c-33 -23 -60 -46 -60 -52 0 -6 19 -24 41 -40 45 -31 62
-29 109 15 11 10 29 25 40 33 20 15 19 16 -19 50 -22 19 -42 35 -45 35 -3 0
-33 -19 -66 -41z"/>
<path d="M4833 2161 c-32 -26 -43 -51 -24 -51 5 0 32 -16 60 -35 28 -19 55
-35 61 -35 19 0 83 67 76 78 -8 13 -115 72 -130 72 -6 -1 -26 -13 -43 -29z"/>
<path d="M4995 2045 c-30 -28 -59 -45 -74 -45 -22 0 -23 -2 -11 -14 22 -21
130 -76 149 -76 9 0 42 18 75 40 32 22 63 40 68 40 5 0 8 6 5 13 -2 6 -12 11
-21 9 -10 -2 -42 15 -71 37 -30 23 -58 41 -62 41 -4 -1 -30 -21 -58 -45z"/>
<path d="M1200 2651 l-295 -6 -3 -393 -2 -392 587 2 588 3 3 45 c2 26 10 48
18 53 21 12 21 237 -1 237 -12 0 -15 13 -15 55 0 42 3 55 15 55 12 0 15 19 15
115 0 96 -3 115 -15 115 -10 0 -15 11 -16 33 -1 35 -6 67 -11 72 -8 6 -602 11
-868 6z m840 -71 c0 -28 -4 -40 -14 -40 -23 0 -29 -36 -21 -136 5 -71 10 -94
21 -94 10 0 14 -14 14 -55 0 -42 -3 -55 -15 -55 -8 0 -15 -3 -16 -7 0 -5 -1
-55 -1 -112 -1 -86 1 -106 15 -116 10 -7 17 -26 17 -44 l0 -31 -549 0 c-491 0
-549 2 -555 16 -10 27 -7 689 4 700 5 5 227 10 555 11 l545 3 0 -40z m40 -155
c0 -77 -2 -85 -19 -85 -25 0 -31 19 -31 94 0 68 4 76 32 76 16 0 18 -9 18 -85z
m0 -339 c0 -89 -12 -114 -37 -81 -13 19 -18 120 -7 149 3 9 15 16 25 16 17 0
19 -8 19 -84z"/>
<path d="M1098 2550 c-14 -10 -31 -33 -38 -51 -12 -27 -11 -36 5 -65 10 -19
22 -34 27 -34 4 0 8 -36 8 -79 0 -70 3 -82 21 -95 14 -9 29 -12 43 -7 19 7 21
17 24 87 2 61 7 83 22 99 23 24 35 74 27 107 -7 27 -55 58 -90 58 -13 0 -36
-9 -49 -20z m86 -31 c31 -25 34 -61 6 -89 -28 -28 -64 -25 -89 6 -27 34 -26
50 4 79 29 30 45 31 79 4z m-26 -204 c-4 -87 -22 -88 -26 -2 -2 56 0 67 13 67
13 0 15 -11 13 -65z"/>
<path d="M1121 2496 c-21 -26 -9 -51 24 -51 27 0 30 3 30 30 0 23 -5 31 -21
33 -11 2 -26 -4 -33 -12z"/>
<path d="M1602 2523 c3 -16 16 -18 128 -16 95 1 125 5 125 15 0 10 -31 14
-128 16 -119 2 -128 1 -125 -15z"/>
<path d="M1680 2455 c0 -12 19 -15 115 -15 96 0 115 3 115 15 0 12 -19 15
-115 15 -96 0 -115 -3 -115 -15z"/>
<path d="M1430 2389 c-43 -18 -89 -59 -116 -105 -47 -80 -31 -186 39 -262 53
-57 177 -74 253 -34 174 89 157 319 -29 397 -41 17 -109 19 -147 4z m64 -59
c7 -35 26 -31 26 5 0 33 13 38 53 21 44 -18 53 -33 33 -55 -17 -19 -21 -41 -8
-41 5 0 17 9 27 20 25 27 29 26 50 -19 21 -48 15 -71 -20 -71 -14 0 -25 -4
-25 -10 0 -5 11 -10 25 -10 33 0 40 -19 21 -64 -16 -38 -36 -46 -56 -21 -7 8
-16 15 -21 15 -14 0 -10 -22 7 -41 20 -22 11 -37 -33 -55 -42 -18 -53 -12 -53
27 0 39 -23 34 -30 -7 -3 -16 -9 -28 -13 -27 -4 1 -20 4 -36 8 -44 9 -58 31
-36 55 27 30 14 45 -18 20 l-27 -21 -20 33 c-27 44 -23 72 13 76 37 4 35 22
-3 22 -35 0 -40 22 -15 70 17 33 36 38 55 15 7 -8 16 -15 21 -15 14 0 10 26
-6 40 -8 7 -15 17 -15 22 0 10 81 49 91 43 3 -3 9 -18 13 -35z"/>
<path d="M1448 2260 c-9 -6 -22 -26 -28 -44 -9 -28 -8 -40 5 -65 42 -82 153
-64 171 27 9 45 -38 92 -93 92 -21 0 -46 -5 -55 -10z"/>
<path d="M2861 2316 c-8 -9 -11 -26 -7 -41 6 -24 11 -26 48 -23 48 3 70 27 52
56 -15 23 -77 28 -93 8z"/>
<path d="M6730 1885 c-170 -47 -225 -127 -132 -190 121 -83 328 -87 474 -8 59
32 76 68 54 111 -38 74 -263 123 -396 87z m170 -20 c42 -21 60 -53 60 -103 0
-37 -6 -50 -34 -78 -28 -28 -42 -34 -75 -34 -112 0 -158 126 -75 200 39 34 78
39 124 15z"/>
<path d="M6804 1832 c-18 -11 -34 -49 -34 -77 0 -35 42 -75 79 -75 35 0 81 49
81 86 0 52 -83 95 -126 66z m84 -34 c29 -29 7 -78 -34 -78 -52 0 -68 27 -42
70 14 22 57 27 76 8z"/>
</g>
</svg>
