<?xml version="1.0" encoding="UTF-8"?>
<svg version="1.1" xmlns="http://www.w3.org/2000/svg" width="1601" height="1200">
<path d="M0 0 C528.33 0 1056.66 0 1601 0 C1601 396 1601 792 1601 1200 C1072.67 1200 544.34 1200 0 1200 C0 804 0 408 0 0 Z " fill="#FEFEFE" transform="translate(0,0)"/>
<path d="M0 0 C1.61908581 1.18826819 3.22136392 2.39955881 4.8125 3.625 C5.90650573 4.43110948 7.00162685 5.23570666 8.09765625 6.0390625 C9.25382711 6.89940064 10.40877925 7.76137902 11.5625 8.625 C12.10543701 9.0276709 12.64837402 9.4303418 13.20776367 9.84521484 C18.06117443 13.56300652 22.33334539 16.90202048 23.41377258 23.04196167 C23.40266953 24.28994537 23.39156647 25.53792908 23.38012695 26.82373047 C23.38085709 27.51711014 23.38158722 28.21048981 23.38233948 28.92488098 C23.37887859 31.19813527 23.34009511 33.46929495 23.30078125 35.7421875 C23.29144763 37.32543824 23.28433411 38.90870349 23.27934265 40.49197388 C23.26031563 44.64502319 23.21125337 48.79718844 23.15582275 52.94989014 C23.10453658 57.19303429 23.08180872 61.43632227 23.05664062 65.6796875 C23.00312914 73.99519591 22.91787006 82.30998776 22.8125 90.625 C32.41981776 89.32338055 42.02636827 88.01618102 51.6325531 86.70623016 C54.05597849 86.37588896 56.47946307 86.04598467 58.9029541 85.71612549 C77.94983105 83.12210467 96.98784229 80.47529848 116.01065826 77.7098999 C118.89197741 77.29113684 121.77345066 76.87344976 124.65496826 76.45605469 C133.04204002 75.24050588 141.4284786 74.02138921 149.8119812 72.78143501 C153.29710878 72.26784313 156.7833044 71.76179623 160.26979065 71.25751877 C161.8817643 71.02265988 163.49327181 70.78457317 165.10423279 70.54286575 C190.79209601 66.69223316 190.79209601 66.69223316 197.8125 71.625 C199.61798493 73.16870311 201.38723942 74.75543731 203.125 76.375 C206.45390604 79.45715425 209.79692703 82.49527491 213.25 85.4375 C217.04007695 88.73828423 220.19491162 91.77223485 221.8125 96.625 C221.92464115 99.53889089 221.98020688 102.42946727 221.98950195 105.34399414 C221.99935875 106.68117996 221.99935875 106.68117996 222.00941467 108.04537964 C222.02914855 111.00030604 222.040813 113.95518152 222.05078125 116.91015625 C222.05485678 117.92095182 222.0589323 118.9317474 222.06313133 119.97317314 C222.0839965 125.32740957 222.09829401 130.68162037 222.10766602 136.03588867 C222.11870687 141.55145545 222.15307879 147.06661617 222.19283772 152.58203983 C222.21906172 156.83473937 222.22736319 161.08734323 222.23094749 165.3401165 C222.23580168 167.37216356 222.24738212 169.40420669 222.26598549 171.43617439 C222.46509195 194.63323841 222.46509195 194.63323841 216.03291321 201.53431702 C211.43469913 205.78579617 207.1849302 207.75712643 200.97094727 208.59545898 C199.77539719 208.76042374 198.57984711 208.92538849 197.34806824 209.09535217 C196.0250239 209.27067225 194.70196956 209.44591687 193.37890625 209.62109375 C191.98101209 209.81165528 190.58321252 210.0029117 189.1855011 210.19480896 C186.16965481 210.6076395 183.1532778 211.01624557 180.13641357 211.42156982 C172.83502719 212.40286228 165.53657555 213.40564736 158.2378006 214.40614319 C155.6738107 214.75738693 153.10970582 215.10778281 150.54559326 215.45812988 C138.34345693 217.12760194 126.14839348 218.84350555 113.95703125 220.58984375 C113.10394693 220.71202459 112.25086262 220.83420544 111.37192726 220.96008873 C103.87431598 222.03447956 96.37722578 223.11248395 88.88040161 224.19235229 C73.5479748 226.40055509 58.21495121 228.60387497 42.86362076 230.67743301 C40.93933023 230.93766919 39.01541972 231.20071059 37.09152222 231.46383667 C35.93999664 231.61772858 34.78847107 231.77162048 33.60205078 231.93017578 C32.59973419 232.06513458 31.5974176 232.20009338 30.56472778 232.33914185 C27.95625213 232.61006929 25.43255814 232.67821415 22.8125 232.625 C22.82138245 233.74729004 22.83026489 234.86958008 22.8394165 236.02587891 C22.92061605 246.61895428 22.98052003 257.21196624 23.01974869 267.80528259 C23.04059479 273.25101729 23.0688583 278.6965001 23.11425781 284.14208984 C23.15782136 289.40055812 23.18165949 294.65878458 23.19200897 299.91741943 C23.19938146 301.92042851 23.21377822 303.92342484 23.23542023 305.92633057 C23.26459378 308.73893501 23.26845017 311.55054907 23.26660156 314.36328125 C23.28098267 315.18543625 23.29536377 316.00759125 23.31018066 316.85466003 C23.25876995 324.11642273 20.90053284 329.62605443 15.9375 334.9375 C5.45974348 343.04515873 -14.85762631 342.51434338 -27.5625 344.25 C-30.07380801 344.59701419 -32.58503679 344.94460216 -35.09619141 345.29272461 C-39.04855868 345.84045168 -43.00096005 346.3879114 -46.95370483 346.9329071 C-56.42979351 348.23974003 -65.90316557 349.56503988 -75.375 350.90234375 C-76.3766837 351.04373307 -76.3766837 351.04373307 -77.39860344 351.18797874 C-80.09659185 351.56881825 -82.79457158 351.94971917 -85.4925375 352.33071804 C-108.8317176 355.62627559 -132.17596497 358.88338294 -155.53076172 362.06665039 C-190.06305879 366.77622784 -224.57017794 371.66178699 -259.0696106 376.60562134 C-269.75566869 378.1368292 -280.44225523 379.6643428 -291.12890625 381.19140625 C-292.17658361 381.34111814 -293.22426098 381.49083004 -294.30368614 381.64507866 C-312.61646881 384.26151119 -330.93133157 386.86259178 -349.25 389.4375 C-350.40510071 389.60030457 -351.56020142 389.76310913 -352.75030518 389.93084717 C-355.92838806 390.37852062 -359.10671716 390.82439479 -362.28515625 391.26953125 C-363.17420151 391.39488754 -364.06324677 391.52024384 -364.97923279 391.6493988 C-369.72190334 392.31066578 -374.46556122 392.91028704 -379.22746277 393.41621399 C-380.77722435 393.58129684 -382.32489396 393.76601037 -383.87158203 393.95776367 C-391.45375967 394.46711493 -396.05927238 391.24210662 -402.0625 386.9375 C-402.98546875 386.31166016 -403.9084375 385.68582031 -404.859375 385.04101562 C-409.94329715 381.52279414 -414.36133863 378.27732275 -417.1875 372.625 C-417.30777472 370.62402482 -417.36487258 368.6191379 -417.39282227 366.61474609 C-417.4227401 364.72301163 -417.4227401 364.72301163 -417.45326233 362.7930603 C-417.47024665 361.41152063 -417.48712546 360.02997966 -417.50390625 358.6484375 C-417.5244756 357.23881418 -417.54547207 355.82919703 -417.56687927 354.41958618 C-417.62210195 350.70752965 -417.67151031 346.99541743 -417.71972656 343.28326416 C-417.76994018 339.49608397 -417.82562697 335.70898474 -417.88085938 331.921875 C-417.98844333 324.48965188 -418.08988773 317.05736148 -418.1875 309.625 C-419.77755499 310.73610728 -421.36734781 311.84758973 -422.95703125 312.95922852 C-424.28504761 313.88760277 -424.28504761 313.88760277 -425.63989258 314.83473206 C-427.72835953 316.30235042 -429.80536386 317.78339896 -431.875 319.27734375 C-442.64921733 326.83228068 -442.64921733 326.83228068 -449.8125 326.0546875 C-450.988125 325.84199219 -450.988125 325.84199219 -452.1875 325.625 C-453.05375 325.52445313 -453.92 325.42390625 -454.8125 325.3203125 C-460.40353333 324.50495347 -464.38456346 323.00439681 -468.1875 318.625 C-470.22705809 314.95970082 -471.62533861 311.04531977 -473.109375 307.13085938 C-475.2077442 301.94943544 -476.96499989 299.2190027 -482.1875 296.625 C-486.52148314 296.05258713 -489.66225393 296.71134864 -493.6875 298.1875 C-497.92030725 299.68946386 -500.78147667 299.95512025 -505.1875 298.625 C-509.75463184 295.24876006 -512.87649592 291.7094485 -516 287 C-516.39380859 286.42765625 -516.78761719 285.8553125 -517.19335938 285.265625 C-520.62877187 280.19794963 -521.58924391 276.75159457 -521.1875 270.625 C-520.72741432 269.35976438 -520.22485751 268.10940144 -519.6875 266.875 C-517.31759642 261.08566411 -517.14765704 254.74452887 -519.125 248.8125 C-522.34694743 245.39528303 -526.22623965 243.10817813 -530.1875 240.625 C-537.5925782 235.79984547 -537.5925782 235.79984547 -539.1875 231.625 C-539.60454817 227.98945208 -539.51186585 224.34455648 -539.5 220.6875 C-539.51611328 219.69814453 -539.53222656 218.70878906 -539.54882812 217.68945312 C-539.55522189 208.18191975 -539.55522189 208.18191975 -536.1875 204.625 C-533.06949545 202.32694993 -529.81681047 200.30938004 -526.5 198.3125 C-525.60732422 197.76271484 -524.71464844 197.21292969 -523.79492188 196.64648438 C-521.59845604 195.29571662 -519.39612087 193.95576638 -517.1875 192.625 C-517.6188601 187.40763122 -518.21697478 182.81238844 -520.25 177.9375 C-521.89866306 173.97718838 -522.69247328 170.93145752 -522.1875 166.625 C-517.24393062 158.51649996 -508.78381315 152.98001501 -501.00146484 147.82861328 C-499.20108262 146.63401243 -497.42356483 145.40967777 -495.64453125 144.18359375 C-494.51468669 143.43238428 -493.38324002 142.68357737 -492.25 141.9375 C-491.25097656 141.27363281 -490.25195312 140.60976563 -489.22265625 139.92578125 C-485.34901316 138.2656485 -483.24210397 138.60906086 -479.1875 139.625 C-476.31640625 140.81640625 -476.31640625 140.81640625 -473.75 142.1875 C-472.88503906 142.64253906 -472.02007812 143.09757813 -471.12890625 143.56640625 C-470.48824219 143.91574219 -469.84757812 144.26507812 -469.1875 144.625 C-469.07776855 143.74183105 -469.07776855 143.74183105 -468.96582031 142.84082031 C-467.3340227 138.1952133 -461.90467187 135.93648105 -457.9375 133.375 C-457.00164062 132.7253125 -456.06578125 132.075625 -455.1015625 131.40625 C-445.37671767 125.09967488 -436.47940793 125.82209095 -425.40625 127.69921875 C-422.30212357 128.99442643 -420.5035853 131.22965248 -418.1875 133.625 C-418.17870064 132.40803688 -418.17870064 132.40803688 -418.16972351 131.16648865 C-418.1116957 123.50135312 -418.03956175 115.83653891 -417.95178509 108.17169094 C-417.90715574 104.23158776 -417.86788362 100.29158621 -417.84106445 96.35131836 C-417.81495673 92.54505106 -417.77450256 88.7391764 -417.72431374 84.93315315 C-417.70769526 83.48483241 -417.69614982 82.03644384 -417.68988609 80.58804131 C-417.61374321 64.59222897 -417.61374321 64.59222897 -411.8125 57.875 C-406.66712458 53.46467822 -402.3634408 52.05666823 -395.68579102 51.28100586 C-394.41223535 51.1182186 -394.41223535 51.1182186 -393.11295128 50.95214272 C-391.26281468 50.7166835 -389.41201987 50.48635271 -387.5606823 50.26053047 C-382.46461282 49.63792343 -377.37364683 48.9754404 -372.28173828 48.31982422 C-371.21063151 48.18300641 -370.13952475 48.0461886 -369.0359602 47.9052248 C-357.22436546 46.39004371 -345.43860862 44.70323421 -333.65234375 43.00390625 C-331.46165699 42.68927979 -329.27095252 42.37477665 -327.08023071 42.06039429 C-319.32275481 40.94633579 -311.56591545 39.82787203 -303.80908203 38.70935059 C-296.09054545 37.59657639 -288.37168622 36.48607683 -280.65234375 35.37890625 C-279.56832275 35.22337658 -278.48430176 35.06784691 -277.36743164 34.90760422 C-258.2428296 32.16775112 -239.10192863 29.55761151 -219.95018005 27.01478577 C-206.55572768 25.23381585 -193.18005319 23.34760404 -179.8125 21.375 C-178.64519852 21.20355972 -177.47789703 21.03211945 -176.27522278 20.85548401 C-174.41209951 20.58174128 -172.54903646 20.30758824 -170.68605042 20.03291321 C-152.42633999 17.34350331 -134.15065058 14.76586955 -115.875 12.1875 C-115.04116665 12.0698101 -114.2073333 11.95212021 -113.34823227 11.83086395 C-87.12459438 8.13022583 -60.8910426 4.5096479 -34.64135742 0.99829102 C-33.48657898 0.84333664 -32.33180054 0.68838226 -31.14202881 0.5287323 C-29.01425533 0.24341606 -26.88629795 -0.04053371 -24.75811768 -0.32279968 C-23.35985748 -0.51033562 -23.35985748 -0.51033562 -21.93334961 -0.70166016 C-21.13158798 -0.80838043 -20.32982635 -0.91510071 -19.50376892 -1.02505493 C-17.87078502 -1.27176837 -16.24442461 -1.56445864 -14.6252594 -1.88973999 C-8.83362865 -3.04262111 -4.98351018 -3.24613966 0 0 Z " fill="#FEFEFE" transform="translate(928.1875,684.375)"/>
<path d="M0 0 C16.13122427 11.40165066 24.71482601 27.26104865 33.7109375 44.3984375 C38.79828127 54.05622916 45.06685417 64.47020139 55.984375 68.109375 C66.56444003 69.41739556 73.99943766 66.3921742 82.5390625 60.28125 C85.0793666 58.28471706 87.53810064 56.22003245 89.984375 54.109375 C104.20312069 41.8948674 114.84064502 34.95308657 133.87597656 35.9140625 C141.81981142 36.64994345 148.10498707 41.01549234 153.984375 46.109375 C154.64179687 46.66109375 155.29921875 47.2128125 155.9765625 47.78125 C170.69945244 61.18652722 176.80947067 82.8119883 178.2878418 102.06054688 C178.42051424 106.01732214 178.45952574 109.96384044 178.421875 113.921875 C178.41816895 114.63601562 178.41446289 115.35015625 178.41064453 116.0859375 C178.31723242 128.90321115 176.96207103 141.21926132 174.72070312 153.84619141 C173.82035919 158.97935516 173.02468022 164.12867518 172.21875 169.27734375 C165.83469394 209.84072874 159.0069677 250.64456522 146.67822266 289.89257812 C146.0323346 291.95614729 145.40181024 294.02361502 144.77734375 296.09375 C142.02829551 305.14011676 138.95222662 314.05805502 135.75048828 322.9543457 C131.85690142 333.92258562 127.63318692 347.7110788 132.171875 359.109375 C132.77 360.099375 133.368125 361.089375 133.984375 362.109375 C134.30148437 362.68816406 134.61859375 363.26695312 134.9453125 363.86328125 C138.83782403 370.25417784 144.85842413 373.83138605 151.91333008 376.01660156 C162.876702 378.51709274 173.56967532 378.5709024 184.76367188 378.62060547 C197.34894743 378.70115514 208.64717978 378.96853535 218.984375 387.109375 C223.05115918 391.59326525 224.48426826 394.56430346 224.37890625 400.55078125 C222.95883785 409.76013572 214.85312704 417.44566718 207.984375 423.109375 C188.67772371 436.15564469 166.75100479 441.22742917 143.734375 441.359375 C142.22580933 441.37327271 142.22580933 441.37327271 140.68676758 441.38745117 C133.39466897 441.35685999 126.7124254 440.32935641 119.66625977 438.51123047 C113.76342976 436.99926523 107.85821115 436.83212077 101.796875 436.734375 C100.94109863 436.70843262 100.08532227 436.68249023 99.20361328 436.65576172 C92.02083183 436.63482066 87.99812181 438.54769022 82.484375 443.234375 C63.63279586 464.91369101 62.2970074 493.95574701 61.37133789 521.39794922 C59.95216145 561.48304524 59.95216145 561.48304524 48.984375 574.109375 C48.51773437 574.6559375 48.05109375 575.2025 47.5703125 575.765625 C42.74714998 580.21777502 36.85123604 579.66938845 30.60546875 579.67578125 C22.88943776 578.46885084 17.8616288 572.5426852 13.109375 566.734375 C-7.36076495 538.58135476 -8.33903954 497.72809854 -8.54931641 464.38623047 C-8.55947784 463.609384 -8.56963928 462.83253754 -8.58010864 462.03215027 C-8.59905356 460.5725518 -8.60638659 459.11273706 -8.599823 457.6530304 C-8.66756602 453.30478762 -9.39275116 450.59131279 -12.015625 447.109375 C-15.46822139 444.51992771 -18.8256385 444.62855688 -23.015625 445.109375 C-36.11059889 450.38504794 -43.08449554 460.35562405 -48.703125 472.796875 C-53.30896483 484.5168901 -54.48156173 496.96771407 -55.515625 509.421875 C-59.98294021 559.41593595 -59.98294021 559.41593595 -76.015625 574.109375 C-82.64465129 579.13017598 -88.62355801 580.9614431 -97.015625 580.109375 C-104.38089444 577.87348963 -109.78562984 573.59940807 -113.9375 567.1015625 C-128.11437641 540.504773 -128.52883786 503.03486165 -123.015625 474.109375 C-122.76425781 472.56636719 -122.76425781 472.56636719 -122.5078125 470.9921875 C-121.87014725 467.17631769 -121.2029872 463.62982556 -119.890625 459.984375 C-118.67973414 456.00573359 -118.85056229 452.23594279 -119.015625 448.109375 C-124.51584009 448.77205152 -126.350291 451.11553431 -129.7890625 455.23046875 C-148.13490655 478.95132325 -157.96422828 506.69494543 -167.42797852 534.81079102 C-176.66901453 562.08385475 -176.66901453 562.08385475 -187.015625 568.109375 C-192.46692024 569.92647341 -197.8910795 569.92828717 -203.203125 567.609375 C-210.57908644 563.44481625 -215.06621213 554.8767308 -217.70996094 547.05517578 C-226.11355187 516.53649382 -219.19940887 490.00212112 -205.23828125 462.75 C-203.61343805 459.24075398 -202.74431851 455.89858125 -202.015625 452.109375 C-217.40075886 458.02673418 -225.95357092 473.35118058 -234.39648438 486.57519531 C-253.06377254 515.79209085 -253.06377254 515.79209085 -263.015625 519.109375 C-268.08091209 519.72925279 -272.54478018 519.91923124 -276.890625 516.984375 C-281.0465818 513.52434492 -284.04018391 509.47885913 -285.015625 504.109375 C-286.83567331 477.01750835 -275.56068521 452.38518389 -258.015625 432.109375 C-257.35304688 431.30242187 -256.69046875 430.49546875 -256.0078125 429.6640625 C-235.48271035 405.50351791 -204.63928741 394.30491008 -175.82177734 383.53271484 C-129.96670644 366.38741521 -91.69388413 345.7179526 -70.28515625 299.4609375 C-68.78787396 296.03527878 -67.37851648 292.59054355 -66.015625 289.109375 C-65.58636719 288.03816406 -65.15710938 286.96695312 -64.71484375 285.86328125 C-54.70032277 259.54028337 -52.43700726 231.67151146 -52.640625 203.734375 C-52.64461304 202.61173248 -52.64860107 201.48908997 -52.65270996 200.33242798 C-52.73358576 180.78312331 -53.72990729 161.52002488 -56.015625 142.109375 C-56.17247962 140.74773475 -56.32921694 139.38608098 -56.48583984 138.02441406 C-58.03127531 124.72709778 -59.88381206 111.4925058 -62.140625 98.296875 C-64.75175701 82.89937559 -66.2070433 68.05252082 -66.328125 52.421875 C-66.33775269 51.72635529 -66.34738037 51.03083557 -66.3572998 50.3142395 C-66.51231412 37.24965579 -65.53736924 24.24130897 -59.140625 12.546875 C-58.81449219 11.90169922 -58.48835937 11.25652344 -58.15234375 10.59179688 C-53.2127492 1.12584233 -46.49215008 -4.30001497 -36.578125 -8.265625 C-23.1999733 -10.61266916 -11.44639197 -7.0858617 0 0 Z " fill="#030101" transform="translate(886.015625,62.890625)"/>
<path d="M0 0 C1.61908581 1.18826819 3.22136392 2.39955881 4.8125 3.625 C5.90650573 4.43110948 7.00162685 5.23570666 8.09765625 6.0390625 C9.25382711 6.89940064 10.40877925 7.76137902 11.5625 8.625 C12.10543701 9.0276709 12.64837402 9.4303418 13.20776367 9.84521484 C18.06117443 13.56300652 22.33334539 16.90202048 23.41377258 23.04196167 C23.40266953 24.28994537 23.39156647 25.53792908 23.38012695 26.82373047 C23.38085709 27.51711014 23.38158722 28.21048981 23.38233948 28.92488098 C23.37887859 31.19813527 23.34009511 33.46929495 23.30078125 35.7421875 C23.29144763 37.32543824 23.28433411 38.90870349 23.27934265 40.49197388 C23.26031563 44.64502319 23.21125337 48.79718844 23.15582275 52.94989014 C23.10453658 57.19303429 23.08180872 61.43632227 23.05664062 65.6796875 C23.00312914 73.99519591 22.91787006 82.30998776 22.8125 90.625 C32.41981776 89.32338055 42.02636827 88.01618102 51.6325531 86.70623016 C54.05597849 86.37588896 56.47946307 86.04598467 58.9029541 85.71612549 C77.94983105 83.12210467 96.98784229 80.47529848 116.01065826 77.7098999 C118.89197741 77.29113684 121.77345066 76.87344976 124.65496826 76.45605469 C133.04204002 75.24050588 141.4284786 74.02138921 149.8119812 72.78143501 C153.29710878 72.26784313 156.7833044 71.76179623 160.26979065 71.25751877 C161.8817643 71.02265988 163.49327181 70.78457317 165.10423279 70.54286575 C190.79209601 66.69223316 190.79209601 66.69223316 197.8125 71.625 C199.61798493 73.16870311 201.38723942 74.75543731 203.125 76.375 C206.45390604 79.45715425 209.79692703 82.49527491 213.25 85.4375 C217.04007695 88.73828423 220.19491162 91.77223485 221.8125 96.625 C221.92464115 99.53889089 221.98020688 102.42946727 221.98950195 105.34399414 C221.99935875 106.68117996 221.99935875 106.68117996 222.00941467 108.04537964 C222.02914855 111.00030604 222.040813 113.95518152 222.05078125 116.91015625 C222.05485678 117.92095182 222.0589323 118.9317474 222.06313133 119.97317314 C222.0839965 125.32740957 222.09829401 130.68162037 222.10766602 136.03588867 C222.11870687 141.55145545 222.15307879 147.06661617 222.19283772 152.58203983 C222.21906172 156.83473937 222.22736319 161.08734323 222.23094749 165.3401165 C222.23580168 167.37216356 222.24738212 169.40420669 222.26598549 171.43617439 C222.46509195 194.63323841 222.46509195 194.63323841 216.03291321 201.53431702 C211.43469913 205.78579617 207.1849302 207.75712643 200.97094727 208.59545898 C199.77539719 208.76042374 198.57984711 208.92538849 197.34806824 209.09535217 C196.0250239 209.27067225 194.70196956 209.44591687 193.37890625 209.62109375 C191.98101209 209.81165528 190.58321252 210.0029117 189.1855011 210.19480896 C186.16965481 210.6076395 183.1532778 211.01624557 180.13641357 211.42156982 C172.83502719 212.40286228 165.53657555 213.40564736 158.2378006 214.40614319 C155.6738107 214.75738693 153.10970582 215.10778281 150.54559326 215.45812988 C138.34345693 217.12760194 126.14839348 218.84350555 113.95703125 220.58984375 C113.10394693 220.71202459 112.25086262 220.83420544 111.37192726 220.96008873 C103.87431598 222.03447956 96.37722578 223.11248395 88.88040161 224.19235229 C73.5479748 226.40055509 58.21495121 228.60387497 42.86362076 230.67743301 C40.93933023 230.93766919 39.01541972 231.20071059 37.09152222 231.46383667 C35.93999664 231.61772858 34.78847107 231.77162048 33.60205078 231.93017578 C32.59973419 232.06513458 31.5974176 232.20009338 30.56472778 232.33914185 C27.95625213 232.61006929 25.43255814 232.67821415 22.8125 232.625 C22.82138245 233.74729004 22.83026489 234.86958008 22.8394165 236.02587891 C22.92061605 246.61895428 22.98052003 257.21196624 23.01974869 267.80528259 C23.04059479 273.25101729 23.0688583 278.6965001 23.11425781 284.14208984 C23.15782136 289.40055812 23.18165949 294.65878458 23.19200897 299.91741943 C23.19938146 301.92042851 23.21377822 303.92342484 23.23542023 305.92633057 C23.26459378 308.73893501 23.26845017 311.55054907 23.26660156 314.36328125 C23.28098267 315.18543625 23.29536377 316.00759125 23.31018066 316.85466003 C23.25876995 324.11642273 20.90053284 329.62605443 15.9375 334.9375 C5.45974348 343.04515873 -14.85762631 342.51434338 -27.5625 344.25 C-30.07380801 344.59701419 -32.58503679 344.94460216 -35.09619141 345.29272461 C-39.04855868 345.84045168 -43.00096005 346.3879114 -46.95370483 346.9329071 C-56.42979351 348.23974003 -65.90316557 349.56503988 -75.375 350.90234375 C-76.3766837 351.04373307 -76.3766837 351.04373307 -77.39860344 351.18797874 C-80.09659185 351.56881825 -82.79457158 351.94971917 -85.4925375 352.33071804 C-108.8317176 355.62627559 -132.17596497 358.88338294 -155.53076172 362.06665039 C-190.06305879 366.77622784 -224.57017794 371.66178699 -259.0696106 376.60562134 C-269.75566869 378.1368292 -280.44225523 379.6643428 -291.12890625 381.19140625 C-292.17658361 381.34111814 -293.22426098 381.49083004 -294.30368614 381.64507866 C-312.61646881 384.26151119 -330.93133157 386.86259178 -349.25 389.4375 C-350.40510071 389.60030457 -351.56020142 389.76310913 -352.75030518 389.93084717 C-355.92838806 390.37852062 -359.10671716 390.82439479 -362.28515625 391.26953125 C-363.17420151 391.39488754 -364.06324677 391.52024384 -364.97923279 391.6493988 C-369.72190334 392.31066578 -374.46556122 392.91028704 -379.22746277 393.41621399 C-380.77722435 393.58129684 -382.32489396 393.76601037 -383.87158203 393.95776367 C-391.45375967 394.46711493 -396.05927238 391.24210662 -402.0625 386.9375 C-402.98546875 386.31166016 -403.9084375 385.68582031 -404.859375 385.04101562 C-409.94329715 381.52279414 -414.36133863 378.27732275 -417.1875 372.625 C-417.30777472 370.62402482 -417.36487258 368.6191379 -417.39282227 366.61474609 C-417.4227401 364.72301163 -417.4227401 364.72301163 -417.45326233 362.7930603 C-417.47024665 361.41152063 -417.48712546 360.02997966 -417.50390625 358.6484375 C-417.5244756 357.23881418 -417.54547207 355.82919703 -417.56687927 354.41958618 C-417.62210195 350.70752965 -417.67151031 346.99541743 -417.71972656 343.28326416 C-417.76994018 339.49608397 -417.82562697 335.70898474 -417.88085938 331.921875 C-417.98844333 324.48965188 -418.08988773 317.05736148 -418.1875 309.625 C-419.77755499 310.73610728 -421.36734781 311.84758973 -422.95703125 312.95922852 C-424.28504761 313.88760277 -424.28504761 313.88760277 -425.63989258 314.83473206 C-427.72835953 316.30235042 -429.80536386 317.78339896 -431.875 319.27734375 C-442.64921733 326.83228068 -442.64921733 326.83228068 -449.8125 326.0546875 C-450.988125 325.84199219 -450.988125 325.84199219 -452.1875 325.625 C-453.05375 325.52445313 -453.92 325.42390625 -454.8125 325.3203125 C-460.40353333 324.50495347 -464.38456346 323.00439681 -468.1875 318.625 C-470.22705809 314.95970082 -471.62533861 311.04531977 -473.109375 307.13085938 C-475.2077442 301.94943544 -476.96499989 299.2190027 -482.1875 296.625 C-486.52148314 296.05258713 -489.66225393 296.71134864 -493.6875 298.1875 C-497.92030725 299.68946386 -500.78147667 299.95512025 -505.1875 298.625 C-509.75463184 295.24876006 -512.87649592 291.7094485 -516 287 C-516.39380859 286.42765625 -516.78761719 285.8553125 -517.19335938 285.265625 C-520.62877187 280.19794963 -521.58924391 276.75159457 -521.1875 270.625 C-520.72741432 269.35976438 -520.22485751 268.10940144 -519.6875 266.875 C-517.31759642 261.08566411 -517.14765704 254.74452887 -519.125 248.8125 C-522.34694743 245.39528303 -526.22623965 243.10817813 -530.1875 240.625 C-537.5925782 235.79984547 -537.5925782 235.79984547 -539.1875 231.625 C-539.60454817 227.98945208 -539.51186585 224.34455648 -539.5 220.6875 C-539.51611328 219.69814453 -539.53222656 218.70878906 -539.54882812 217.68945312 C-539.55522189 208.18191975 -539.55522189 208.18191975 -536.1875 204.625 C-533.06949545 202.32694993 -529.81681047 200.30938004 -526.5 198.3125 C-525.60732422 197.76271484 -524.71464844 197.21292969 -523.79492188 196.64648438 C-521.59845604 195.29571662 -519.39612087 193.95576638 -517.1875 192.625 C-517.6188601 187.40763122 -518.21697478 182.81238844 -520.25 177.9375 C-521.89866306 173.97718838 -522.69247328 170.93145752 -522.1875 166.625 C-517.24393062 158.51649996 -508.78381315 152.98001501 -501.00146484 147.82861328 C-499.20108262 146.63401243 -497.42356483 145.40967777 -495.64453125 144.18359375 C-494.51468669 143.43238428 -493.38324002 142.68357737 -492.25 141.9375 C-491.25097656 141.27363281 -490.25195312 140.60976563 -489.22265625 139.92578125 C-485.34901316 138.2656485 -483.24210397 138.60906086 -479.1875 139.625 C-476.31640625 140.81640625 -476.31640625 140.81640625 -473.75 142.1875 C-472.88503906 142.64253906 -472.02007812 143.09757813 -471.12890625 143.56640625 C-470.48824219 143.91574219 -469.84757812 144.26507812 -469.1875 144.625 C-469.07776855 143.74183105 -469.07776855 143.74183105 -468.96582031 142.84082031 C-467.3340227 138.1952133 -461.90467187 135.93648105 -457.9375 133.375 C-457.00164062 132.7253125 -456.06578125 132.075625 -455.1015625 131.40625 C-445.37671767 125.09967488 -436.47940793 125.82209095 -425.40625 127.69921875 C-422.30212357 128.99442643 -420.5035853 131.22965248 -418.1875 133.625 C-418.17870064 132.40803688 -418.17870064 132.40803688 -418.16972351 131.16648865 C-418.1116957 123.50135312 -418.03956175 115.83653891 -417.95178509 108.17169094 C-417.90715574 104.23158776 -417.86788362 100.29158621 -417.84106445 96.35131836 C-417.81495673 92.54505106 -417.77450256 88.7391764 -417.72431374 84.93315315 C-417.70769526 83.48483241 -417.69614982 82.03644384 -417.68988609 80.58804131 C-417.61374321 64.59222897 -417.61374321 64.59222897 -411.8125 57.875 C-406.66712458 53.46467822 -402.3634408 52.05666823 -395.68579102 51.28100586 C-394.41223535 51.1182186 -394.41223535 51.1182186 -393.11295128 50.95214272 C-391.26281468 50.7166835 -389.41201987 50.48635271 -387.5606823 50.26053047 C-382.46461282 49.63792343 -377.37364683 48.9754404 -372.28173828 48.31982422 C-371.21063151 48.18300641 -370.13952475 48.0461886 -369.0359602 47.9052248 C-357.22436546 46.39004371 -345.43860862 44.70323421 -333.65234375 43.00390625 C-331.46165699 42.68927979 -329.27095252 42.37477665 -327.08023071 42.06039429 C-319.32275481 40.94633579 -311.56591545 39.82787203 -303.80908203 38.70935059 C-296.09054545 37.59657639 -288.37168622 36.48607683 -280.65234375 35.37890625 C-279.56832275 35.22337658 -278.48430176 35.06784691 -277.36743164 34.90760422 C-258.2428296 32.16775112 -239.10192863 29.55761151 -219.95018005 27.01478577 C-206.55572768 25.23381585 -193.18005319 23.34760404 -179.8125 21.375 C-178.64519852 21.20355972 -177.47789703 21.03211945 -176.27522278 20.85548401 C-174.41209951 20.58174128 -172.54903646 20.30758824 -170.68605042 20.03291321 C-152.42633999 17.34350331 -134.15065058 14.76586955 -115.875 12.1875 C-115.04116665 12.0698101 -114.2073333 11.95212021 -113.34823227 11.83086395 C-87.12459438 8.13022583 -60.8910426 4.5096479 -34.64135742 0.99829102 C-33.48657898 0.84333664 -32.33180054 0.68838226 -31.14202881 0.5287323 C-29.01425533 0.24341606 -26.88629795 -0.04053371 -24.75811768 -0.32279968 C-23.35985748 -0.51033562 -23.35985748 -0.51033562 -21.93334961 -0.70166016 C-21.13158798 -0.80838043 -20.32982635 -0.91510071 -19.50376892 -1.02505493 C-17.87078502 -1.27176837 -16.24442461 -1.56445864 -14.6252594 -1.88973999 C-8.83362865 -3.04262111 -4.98351018 -3.24613966 0 0 Z M10.66333008 39.32421875 C9.62428528 39.478871 8.58524048 39.63352325 7.51470947 39.79286194 C6.38192566 39.9643425 5.24914185 40.13582306 4.08203125 40.3125 C2.887453 40.49070786 1.69287476 40.66891571 0.46209717 40.8525238 C-2.12805301 41.23893386 -4.71804459 41.62627669 -7.30783081 42.0151062 C-14.20920929 43.05081899 -21.11230823 44.07495389 -28.015625 45.09765625 C-28.72313337 45.20252916 -29.43064175 45.30740208 -30.15958977 45.41545296 C-51.30823095 48.54777533 -72.48324896 51.49127527 -93.65873718 54.43588257 C-101.17094708 55.48092659 -108.68069646 56.54170972 -116.1875 57.625 C-115.5275 59.605 -114.8675 61.585 -114.1875 63.625 C-114.8475 63.625 -115.5075 63.625 -116.1875 63.625 C-116.8475 61.975 -117.5075 60.325 -118.1875 58.625 C-127.73393827 59.17048474 -137.05090812 60.22213914 -146.5 61.6875 C-149.52417074 62.14573672 -152.54914903 62.59852131 -155.57421875 63.05078125 C-156.80767029 63.23566605 -156.80767029 63.23566605 -158.06604004 63.42428589 C-169.63723602 65.15102705 -181.22584732 66.7559732 -192.8125 68.375 C-195.25122528 68.71611311 -197.68994592 69.05725937 -200.12866211 69.3984375 C-203.90774099 69.92709171 -207.68682929 70.45567784 -211.46595764 70.98397827 C-220.74378948 72.28143636 -230.02056933 73.58621931 -239.296875 74.89453125 C-266.26077523 78.69667441 -293.22770464 82.47316381 -320.20751953 86.16113281 C-335.86879624 88.30233766 -351.52523483 90.4768535 -367.17895508 92.67260742 C-368.00498734 92.78830582 -368.83101959 92.90400421 -369.68208313 93.02320862 C-371.27385678 93.24622204 -372.86556457 93.46970618 -374.4571991 93.69371033 C-378.19488775 94.21744112 -381.93357667 94.72522359 -385.67773438 95.20068359 C-386.37972961 95.29061081 -387.08172485 95.38053802 -387.80499268 95.47319031 C-389.69798092 95.71391854 -391.59164451 95.9493194 -393.48535156 96.18432617 C-396.09747084 96.34027957 -396.09747084 96.34027957 -397.1875 97.625 C-397.28126053 99.43555025 -397.3049411 101.24977201 -397.30102539 103.06274414 C-397.30094986 104.22387222 -397.30087433 105.38500031 -397.30079651 106.58131409 C-397.29563522 107.844832 -397.29047394 109.10834991 -397.28515625 110.41015625 C-397.2837413 111.69611191 -397.28232635 112.98206757 -397.28086853 114.30699158 C-397.27704418 117.73143443 -397.26721462 121.15583509 -397.25616455 124.58026123 C-397.24594864 128.07238189 -397.24137053 131.56450934 -397.23632812 135.05664062 C-397.22559227 141.91277778 -397.20851684 148.76888687 -397.1875 155.625 C-396.10726562 155.30144531 -395.02703125 154.97789062 -393.9140625 154.64453125 C-389.2705276 153.37413019 -385.32530777 152.64487551 -380.8359375 154.703125 C-377.34272224 157.23802457 -375.0228352 160.26245351 -372.4375 163.6875 C-371.94378906 164.32494141 -371.45007813 164.96238281 -370.94140625 165.61914062 C-366.9560117 170.80015354 -365.33983528 174.03082902 -366.1875 180.625 C-366.80013893 182.29169894 -367.47030785 183.9380471 -368.1875 185.5625 C-370.25733583 190.37486831 -371.13999008 194.42139632 -370.1875 199.625 C-367.48043408 205.62762443 -362.58742964 208.27958904 -357.1875 211.625 C-349.65076868 216.40300325 -349.65076868 216.40300325 -348.1875 221.625 C-347.90815531 224.79642709 -347.90826407 227.9431562 -347.9375 231.125 C-347.92589844 232.38763672 -347.92589844 232.38763672 -347.9140625 233.67578125 C-347.91664063 234.49433594 -347.91921875 235.31289063 -347.921875 236.15625 C-347.92413086 236.89423828 -347.92638672 237.63222656 -347.92871094 238.39257812 C-348.37437696 242.2370782 -349.17537953 244.81554318 -352.25048828 247.27490234 C-353.07790527 247.74879395 -353.90532227 248.22268555 -354.7578125 248.7109375 C-355.65371094 249.24976563 -356.54960938 249.78859375 -357.47265625 250.34375 C-359.36833755 251.4493468 -361.26943808 252.54570275 -363.17578125 253.6328125 C-365.70984498 255.1686087 -368.00313888 256.62161233 -370.1875 258.625 C-371.13018515 263.21934974 -370.23606714 266.2494134 -368.1875 270.375 C-365.87825173 275.79635346 -365.10537822 280.78723776 -366.1875 286.625 C-368.25 289.375 -368.25 289.375 -371.1875 291.625 C-372.2162042 292.74566191 -373.23840573 293.87231219 -374.25561523 295.00341797 C-376.9959099 297.79622801 -379.32347266 299.29171737 -382.97680664 300.67236328 C-388.74246571 302.98170912 -393.55329372 305.43195812 -397.1875 310.625 C-400.35150286 321.3184364 -399.23772571 333.00285356 -398.72528076 344.012146 C-398.59133478 347.3351967 -398.54394698 350.6569212 -398.50045681 353.98220634 C-398.44602249 357.9655033 -398.35074402 361.94743077 -398.24609375 365.9296875 C-398.22796568 366.68169308 -398.20983761 367.43369865 -398.1911602 368.20849228 C-398.13036485 370.34608234 -398.04167855 372.48055441 -397.94311523 374.61669922 C-397.89468979 375.82848846 -397.84626434 377.04027771 -397.79637146 378.28878784 C-397.07251358 382.25504937 -395.6858911 384.48842507 -393.1875 387.625 C-385.19089011 392.95607326 -372.18063493 388.83357014 -363.125 387.5 C-361.55362135 387.27456498 -359.982136 387.04987257 -358.41055298 386.8258667 C-355.07135111 386.3485795 -351.73284677 385.86677542 -348.39483643 385.38122559 C-343.12808697 384.61528203 -337.85990081 383.85959731 -332.59130859 383.10644531 C-331.26971898 382.9175215 -331.26971898 382.9175215 -329.92143059 382.72478104 C-328.13917228 382.47005372 -326.35690693 382.21537563 -324.57463455 381.96074677 C-321.89441687 381.57755016 -319.21433544 381.19341152 -316.53427124 380.80914307 C-300.97131685 378.58020329 -285.39517333 376.46160181 -269.8125 374.375 C-252.98547649 372.11487644 -236.17166809 369.78835939 -219.375 367.3125 C-198.21899586 364.19443251 -177.0497991 361.17482223 -155.875 358.1875 C-155.03436634 358.06885967 -154.19373268 357.95021935 -153.32762527 357.82798386 C-130.49847053 354.60670425 -107.66215034 351.44770921 -84.8125 348.375 C-66.73653263 345.94402208 -48.6730964 343.44296587 -30.625 340.8125 C-29.65129456 340.67106567 -28.67758911 340.52963135 -27.67437744 340.38391113 C-22.34322403 339.60799248 -17.01515562 338.81459592 -11.68963623 338.00091553 C-9.15193619 337.61965697 -6.6117478 337.25978486 -4.07080078 336.90087891 C-2.45463843 336.65994428 -0.83858476 336.41827921 0.77734375 336.17578125 C1.86638756 336.02981758 1.86638756 336.02981758 2.97743225 335.88090515 C7.82996814 335.12648211 11.1082155 333.86456218 14.8125 330.625 C18.56143302 325.08653299 19.38411333 320.11210429 19.26660156 313.546875 C19.26718567 312.67763901 19.26776978 311.80840302 19.26837158 310.91282654 C19.26560567 308.06646474 19.23458518 305.22117671 19.203125 302.375 C19.19565728 300.39103772 19.18996686 298.40706802 19.18597412 296.4230957 C19.1707596 291.22140861 19.13151394 286.02017389 19.0871582 280.81866455 C19.04611509 275.50286985 19.02794384 270.1870015 19.0078125 264.87109375 C18.96501555 254.45553128 18.89681509 244.04030337 18.8125 233.625 C13.51042255 234.1395495 8.2170432 234.66396811 2.9375 235.37890625 C1.93203125 235.51103516 0.9265625 235.64316406 -0.109375 235.77929688 C-2.16197099 236.05150028 -4.21406124 236.32754484 -6.265625 236.60742188 C-22.91601018 238.77410661 -22.91601018 238.77410661 -28.5078125 235.9453125 C-36.51652703 229.01065298 -50.25628301 216.93507238 -51.37717819 205.72864532 C-51.46182222 203.40204549 -51.48057539 201.08303713 -51.47802734 198.75488281 C-51.48474457 197.87128082 -51.49146179 196.98767883 -51.49838257 196.07730103 C-51.51735443 193.16085153 -51.52128663 190.24463235 -51.5234375 187.328125 C-51.52986695 185.29416816 -51.53659542 183.26021224 -51.54360962 181.22625732 C-51.55558105 176.96266538 -51.55929067 172.69915444 -51.55810547 168.43554688 C-51.55790251 162.98716668 -51.58518144 157.53930944 -51.61964989 152.09105301 C-51.64195187 147.88899375 -51.64594196 143.68705957 -51.64488602 139.4849472 C-51.64723789 137.47720287 -51.656038 135.46945488 -51.67155075 133.4617691 C-51.69127348 130.64504541 -51.68534767 127.82943922 -51.67333984 125.01269531 C-51.68457886 124.19264008 -51.69581787 123.37258484 -51.70739746 122.52767944 C-51.62800783 115.15321194 -49.50607592 109.1592574 -44.5 103.6875 C-38.08434274 99.69284548 -30.11484699 99.21895875 -22.7265625 98.15234375 C-21.8553476 98.02436905 -20.98413269 97.89639435 -20.08651733 97.76454163 C-18.256484 97.49658877 -16.42620809 97.23028789 -14.59570312 96.96557617 C-11.82610765 96.56447072 -9.05756225 96.15663891 -6.2890625 95.74804688 C-4.49745477 95.486575 -2.70578987 95.22549452 -0.9140625 94.96484375 C-0.10224518 94.84503647 0.70957214 94.72522919 1.54598999 94.60179138 C7.64138551 93.72641402 13.65643138 93.1846426 19.8125 92.625 C19.8125 74.805 19.8125 56.985 19.8125 38.625 C16.59324661 38.625 13.82236526 38.84922091 10.66333008 39.32421875 Z " fill="#060404" transform="translate(928.1875,684.375)"/>
<path d="M0 0 C15.65040707 -0.18451713 15.65040707 -0.18451713 21.875 3.875 C24.48112624 7.70753859 25.99199492 11.67988363 27.68359375 15.98046875 C29.89646668 21.05628707 32.63612946 25.50702913 37.375 28.5 C43.65971252 29.6970881 48.16481802 29.35649003 53.84765625 26.55859375 C57.27934673 25.66797353 59.58544758 26.06708233 63 27 C65.30140457 28.85515881 67.02363904 31.03358537 68.8125 33.375 C69.28880859 33.96539063 69.76511719 34.55578125 70.25585938 35.1640625 C76.0230207 42.36693066 76.0230207 42.36693066 75.875 46.4375 C75.32782601 50.15144345 74.1571683 53.47848914 72.875 57 C71.03304776 62.33762801 70.49471936 65.54335768 72 71 C76.02327357 78.47179377 82.62933338 82.10191803 89.671875 86.4140625 C92 88 92 88 93 90 C93.29295155 93.63946843 93.27787107 97.28761064 93.3125 100.9375 C93.34150391 101.95263672 93.37050781 102.96777344 93.40039062 104.01367188 C93.40876953 104.98755859 93.41714844 105.96144531 93.42578125 106.96484375 C93.44765503 108.30470337 93.44765503 108.30470337 93.4699707 109.67163086 C93 112 93 112 91.16674805 113.73901367 C87.38408515 115.94041693 83.2263004 117.13012349 79.09375 118.5234375 C75.54762568 120.21590593 74.04177159 121.66248875 72 125 C70.51948948 131.98888052 72.52928656 138.04422383 75.08984375 144.49609375 C76.33217195 147.91382926 76.63309188 150.41247935 76 154 C74.37722891 156.4095692 73.05096951 158.03663471 71 160 C70.16855469 160.84498047 70.16855469 160.84498047 69.3203125 161.70703125 C64.93029618 165.87266896 64.93029618 165.87266896 61.203125 166.3828125 C57.22297596 165.90713615 54.66883307 164.46923891 51.1875 162.5 C45.86413076 159.66667305 41.07215371 157.2278693 35 159 C29.91009468 162.31435695 27.94928259 167.87721707 25.52734375 173.2578125 C23.90834534 176.16455645 22.9544753 177.49666274 20 179 C17.01171875 179.1796875 17.01171875 179.1796875 13.6875 178.875 C12.59824219 178.78992188 11.50898438 178.70484375 10.38671875 178.6171875 C6.3686725 177.88494839 3.52536062 177.11109314 0 175 C-1.83842417 172.21277104 -2.96864076 169.24667366 -4.125 166.125 C-6.64899675 159.54571141 -8.92124841 154.95357874 -14.8125 150.6875 C-20.095513 149.02712449 -24.61984509 149.72125205 -29.6875 151.5625 C-35.42106701 153.6011016 -35.42106701 153.6011016 -39 152 C-45.31087974 147.97145298 -49.88544429 141.74031509 -53 135 C-53.3421781 131.20791667 -53.24318186 129.47623114 -51.5 126.0625 C-48.79477677 120.28963129 -49.15318795 113.18106121 -50 107 C-52.19552975 102.91143571 -54.36480039 100.34258165 -58.3125 97.9375 C-59.09238281 97.44636719 -59.87226563 96.95523438 -60.67578125 96.44921875 C-61.82626953 95.73185547 -61.82626953 95.73185547 -63 95 C-69.78461538 90.43076923 -69.78461538 90.43076923 -71 88 C-71.34441491 84.54940568 -71.37049953 81.09054156 -71.4375 77.625 C-71.48326172 76.6659375 -71.52902344 75.706875 -71.57617188 74.71875 C-71.61935635 72.02253642 -71.57291318 69.63602675 -71 67 C-67.63608565 63.80088837 -64.4102545 62.60319354 -59.9375 61.625 C-54.80949719 60.22715586 -52.90219922 58.4001085 -50 54 C-47.64315655 49.2863131 -48.58639097 44.26746632 -50.15234375 39.46875 C-51.07138804 37.04512075 -52.02061105 34.63265599 -53.00390625 32.234375 C-54.07222315 28.76548718 -54.31047752 27.34960228 -53 24 C-50.9609375 21.359375 -50.9609375 21.359375 -48.375 18.75 C-47.11816406 17.44289063 -47.11816406 17.44289063 -45.8359375 16.109375 C-42.34876917 13.51561343 -40.33774791 12.98587053 -36 13 C-33.47334935 14.04541239 -31.38369888 15.0654409 -29.0625 16.4375 C-23.75881435 19.31149774 -20.06127607 21.1906078 -14 20 C-8.21553673 17.00036454 -6.20987585 13.44276159 -3.625 7.75 C-3.27050781 7.00492188 -2.91601562 6.25984375 -2.55078125 5.4921875 C-1.685666 3.66843103 -0.84074114 1.83512026 0 0 Z " fill="#FDFDFD" transform="translate(464,827)"/>
<path d="M0 0 C1.11955078 0.61875 1.11955078 0.61875 2.26171875 1.25 C12.08428574 7.12019283 18.55284552 16.54327203 22.078125 27.28515625 C24.8615696 38.50149445 23.42474481 49.28023246 17.71484375 59.2421875 C12.9449682 66.28406505 6.16399583 70.76607079 -2 73 C-13.1983667 74.1410658 -21.64103419 72.40539657 -30.6875 65.75 C-38.92501941 58.90719287 -45.70853886 50.71362914 -48 40 C-48.239852 36.94043331 -48.23098787 33.88058283 -48.25 30.8125 C-48.270625 29.99974609 -48.29125 29.18699219 -48.3125 28.34960938 C-48.37363169 18.74429286 -45.57961987 11.03900774 -39 4 C-28.42678275 -5.69211582 -12.38891759 -7.58021726 0 0 Z " fill="#060404" transform="translate(488,882)"/>
<path d="M0 0 C0.96679688 0.73089844 1.93359375 1.46179688 2.9296875 2.21484375 C3.65414063 2.82457031 4.37859375 3.43429687 5.125 4.0625 C5.125 4.3925 5.125 4.7225 5.125 5.0625 C-28.1699404 10.0548357 -61.4847954 14.87764058 -94.8301239 19.52114868 C-103.43489867 20.71998211 -112.03814593 21.92934062 -120.640625 23.14453125 C-143.61641796 26.38861992 -166.59368122 29.61938899 -189.58203125 32.7734375 C-191.31252128 33.01094389 -193.04301037 33.24845718 -194.77349854 33.48597717 C-195.64075813 33.60500617 -196.50801773 33.72403517 -197.40155792 33.8466711 C-201.87188102 34.46021466 -206.34219587 35.07381823 -210.8125 35.6875 C-211.70253975 35.80965755 -212.5925795 35.93181511 -213.50959015 36.05767441 C-250.22899893 41.09865901 -286.92192521 46.32013556 -323.60826015 51.5960722 C-327.95294114 52.22073977 -332.29776323 52.84442292 -336.64259148 53.46806526 C-339.58917648 53.89153455 -342.53550981 54.31672081 -345.48182678 54.74205017 C-355.10978334 56.1279659 -364.74308004 57.47239824 -374.38476562 58.75952148 C-375.82672428 58.95595922 -375.82672428 58.95595922 -377.29781342 59.15636539 C-389.62367099 60.77964548 -389.62367099 60.77964548 -393.8671875 58.34765625 C-395.29417969 57.24744141 -395.29417969 57.24744141 -396.75 56.125 C-397.71679688 55.39410156 -398.68359375 54.66320312 -399.6796875 53.91015625 C-400.40414062 53.30042969 -401.12859375 52.69070313 -401.875 52.0625 C-401.875 51.7325 -401.875 51.4025 -401.875 51.0625 C-341.91037546 41.94105323 -341.91037546 41.94105323 -321.73583984 39.43920898 C-311.78527004 38.20072309 -301.86192743 36.80527237 -291.9375 35.375 C-288.34638315 34.85787141 -284.75524281 34.34090653 -281.1640625 33.82421875 C-280.21094681 33.68706955 -279.25783112 33.54992035 -278.27583313 33.40861511 C-262.05838663 31.07900569 -245.83193154 28.81244291 -229.60693359 26.53613281 C-227.54592645 26.24695832 -225.48492032 25.95777656 -223.42391586 25.66858292 C-222.04687709 25.47536998 -220.66983495 25.28218102 -219.29278946 25.08901596 C-209.77442474 23.75366264 -200.2573855 22.40923836 -190.74130058 21.05773926 C-186.24043716 20.41895934 -181.73922733 19.78262316 -177.23806763 19.14593506 C-174.82829072 18.80439944 -172.41867734 18.46170763 -170.00924683 18.11773682 C-156.31876432 16.16377068 -142.64196487 14.38392199 -128.875 13.0625 C-128.545 16.0325 -128.215 19.0025 -127.875 22.0625 C-127.215 22.0625 -126.555 22.0625 -125.875 22.0625 C-126.205 18.7625 -126.535 15.4625 -126.875 12.0625 C-125.90755859 11.92787354 -124.94011719 11.79324707 -123.94335938 11.65454102 C-119.08716243 10.97858086 -114.2310689 10.30187939 -109.375 9.625 C-108.45737885 9.4971109 -107.53975769 9.3692218 -106.59432983 9.23745728 C-93.41180023 7.39961607 -80.23075794 5.55135845 -67.05078125 3.6953125 C-65.60151194 3.49126473 -64.15224233 3.28721912 -62.70297241 3.08317566 C-56.22138168 2.17054342 -49.73984949 1.25750075 -43.25851154 0.3430748 C-41.19484833 0.05201217 -39.13114647 -0.23877472 -37.06742859 -0.52944946 C-34.5250504 -0.88757045 -31.98273858 -1.24616311 -29.44050598 -1.60531616 C-6.3058653 -4.86183924 -6.3058653 -4.86183924 0 0 Z " fill="#F9F9F9" transform="translate(928.875,689.9375)"/>
<path d="M0 0 C5.42833723 3.88994207 9.79979739 8.8547518 14 14 C10.0997292 16.43301674 5.79137854 16.81186581 1.33203125 17.4453125 C0.45109802 17.5758905 -0.42983521 17.70646851 -1.33746338 17.84100342 C-4.28649642 18.27599584 -7.23691838 18.70064814 -10.1875 19.125 C-12.29766529 19.43336079 -14.40777143 19.74212652 -16.51782227 20.05126953 C-38.53434127 23.26464586 -60.57093128 26.33969529 -82.60772705 29.41029358 C-95.17840325 31.16246005 -107.74675255 32.93102832 -120.31493092 34.70099735 C-125.04655598 35.36717434 -129.778463 36.0313222 -134.51049805 36.69458008 C-146.06011016 38.31406282 -157.60889245 39.93802526 -169.15150452 41.60682678 C-173.76994255 42.27404169 -178.38921265 42.93538274 -183.00857544 43.59616089 C-185.136358 43.90228192 -187.26371633 44.21136936 -189.39059448 44.52371216 C-217.32858889 48.62537012 -217.32858889 48.62537012 -222.40917969 45.53417969 C-224.49714264 43.82621192 -226.23330214 42.03598668 -228 40 C-228.52722656 39.42894531 -229.05445313 38.85789062 -229.59765625 38.26953125 C-233 34.43123259 -233 34.43123259 -233 32 C-225.27723819 30.91250179 -217.55442219 29.8253892 -209.83154678 28.73869801 C-206.24086396 28.2334397 -202.65019623 27.72807472 -199.05957031 27.22241211 C-171.17354836 23.29545242 -143.28523755 19.3857879 -115.37890625 15.60546875 C-86.60399506 11.70565437 -57.83785627 7.7748086 -29.125 3.4375 C-27.99627472 3.26769623 -26.86754944 3.09789246 -25.70462036 2.92294312 C-22.57594372 2.45100465 -19.44797219 1.97472058 -16.3203125 1.49609375 C-15.4083461 1.35802307 -14.4963797 1.21995239 -13.55677795 1.07769775 C-12.72867111 0.94949646 -11.90056427 0.82129517 -11.04736328 0.68920898 C-10.33266876 0.5794725 -9.61797424 0.46973602 -8.88162231 0.35667419 C-2.37634203 -0.87644554 -2.37634203 -0.87644554 0 0 Z " fill="#FAFAFA" transform="translate(1124,871)"/>
<path d="M0 0 C9.2934208 -0.92522995 16.87301877 1.45900684 24.55078125 6.76171875 C33.25584799 13.97448833 39.23895928 24.00437468 40.31640625 35.32421875 C40.57383335 43.00551128 39.68721665 49.20308257 36 56 C35 57 35 57 31.1875 57.375 C21.81194119 57.22594501 13.6021073 52.61928257 6.96875 46.23828125 C3.66281617 42.47974934 1.25228218 38.45403239 -1 34 C-1.3403125 33.40058594 -1.680625 32.80117188 -2.03125 32.18359375 C-5.6212985 24.75418782 -5.38161589 13.74893081 -3.09765625 5.8984375 C-2 3.4375 -2 3.4375 0 0 Z " fill="#FBFBFB" transform="translate(467,882)"/>
<path d="M0 0 C2.87595556 2.87595556 2.29066223 5.20548555 2.32226562 9.13867188 C2.31743164 10.5240918 2.31743164 10.5240918 2.3125 11.9375 C2.32861328 12.85724609 2.34472656 13.77699219 2.36132812 14.72460938 C2.36197266 15.60826172 2.36261719 16.49191406 2.36328125 17.40234375 C2.36626221 18.21179443 2.36924316 19.02124512 2.37231445 19.85522461 C2 22 2 22 0.90087891 23.69433594 C-1.87407951 25.60038238 -4.46472859 25.91730312 -7.77734375 26.48828125 C-8.47270737 26.6094783 -9.16807098 26.73067535 -9.88450623 26.85554504 C-18.76580547 28.36459952 -27.69451862 29.58585136 -36.62133789 30.78979492 C-39.59028251 31.19125676 -42.5578288 31.60212643 -45.52539062 32.01367188 C-47.43481949 32.27399809 -49.34432216 32.53378362 -51.25390625 32.79296875 C-52.13003067 32.91480026 -53.00615509 33.03663177 -53.90882874 33.16215515 C-58.6275664 33.79099333 -63.22988995 34.31702909 -68 34 C-70.87595556 31.12404444 -70.29066223 28.79451445 -70.32226562 24.86132812 C-70.31904297 23.93771484 -70.31582031 23.01410156 -70.3125 22.0625 C-70.32861328 21.14275391 -70.34472656 20.22300781 -70.36132812 19.27539062 C-70.36197266 18.39173828 -70.36261719 17.50808594 -70.36328125 16.59765625 C-70.36626221 15.78820557 -70.36924316 14.97875488 -70.37231445 14.14477539 C-70 12 -70 12 -68.93383789 10.30566406 C-66.07267006 8.37389717 -63.04173479 8.01627307 -59.6953125 7.51171875 C-58.95225861 7.3905217 -58.20920471 7.26932465 -57.44363403 7.14445496 C-54.96465899 6.74670148 -52.48314481 6.37079511 -50 6 C-49.13306519 5.8691803 -48.26613037 5.7383606 -47.3729248 5.60357666 C-41.82989468 4.77306805 -36.28206775 3.98120732 -30.73046875 3.21020508 C-27.84290543 2.80802992 -24.95662517 2.39737215 -22.0703125 1.98632812 C-20.21100878 1.72605279 -18.35163619 1.46626886 -16.4921875 1.20703125 C-15.21551712 1.02428398 -15.21551712 1.02428398 -13.91305542 0.83784485 C-9.25139703 0.19868307 -4.71582994 -0.31178099 0 0 Z " fill="#080606" transform="translate(714,966)"/>
<path d="M0 0 C0.66 0 1.32 0 2 0 C2 0.66 2 1.32 2 2 C2.53625 2.226875 3.0725 2.45375 3.625 2.6875 C8.62752153 5.45205137 12.59098434 8.78750341 15 14 C15.42953824 17.03596145 15.41002039 20.03916913 15.38818359 23.10131836 C15.39344055 24.00924637 15.39869751 24.91717438 15.40411377 25.85261536 C15.417298 28.8485341 15.40858043 31.84391976 15.3984375 34.83984375 C15.40045886 36.92582806 15.40337082 39.01181168 15.40713501 41.09779358 C15.41155638 45.46817762 15.40513387 49.8383776 15.39111328 54.20874023 C15.37403224 59.8053222 15.38385707 65.40147221 15.40183067 70.99803829 C15.41268253 75.30549867 15.40921552 79.61285702 15.4014473 83.92032051 C15.39944862 85.98355727 15.40189286 88.04680335 15.40888596 90.11002922 C15.41652219 92.99669724 15.40486508 95.88267068 15.38818359 98.76928711 C15.39729263 100.04360092 15.39729263 100.04360092 15.40658569 101.34365845 C15.35345872 106.31726055 14.65665994 109.63791238 12 114 C6.60117576 109.40525596 1.28666913 104.72323727 -4 100 C-3.51333527 97.81000873 -2.96898037 95.93647872 -1.98086548 93.91304016 C-0.63985718 89.93042367 -0.69198246 86.25481348 -0.68115234 82.07885742 C-0.67110672 81.19055237 -0.6610611 80.30224731 -0.65071106 79.38702393 C-0.61989599 76.45984526 -0.60284851 73.532758 -0.5859375 70.60546875 C-0.56722451 68.57236445 -0.547651 66.5392679 -0.5272522 64.50617981 C-0.47593887 59.16167779 -0.43630877 53.81715059 -0.39910889 48.47253418 C-0.35906431 43.01613134 -0.30797401 37.55983317 -0.2578125 32.10351562 C-0.16106262 21.40241728 -0.07665474 10.70125983 0 0 Z " fill="#FBFAFA" transform="translate(1130,767)"/>
<path d="M0 0 C2.96328 3.37200827 3.4569894 6.47908767 3.3046875 10.9296875 C2.80976546 14.29261934 1.51551408 16.96897183 0 20 C0.94359375 19.80083984 0.94359375 19.80083984 1.90625 19.59765625 C7.26258811 18.49250818 12.56437906 17.60395788 18 17 C17.7578125 19.359375 17.7578125 19.359375 17 22 C10.91763308 26.59556612 2.93910154 26.36778367 -4.328125 26.65234375 C-7.86566784 26.98728132 -10.42669025 27.71011214 -13.6875 29.0625 C-20.20153152 31.73616965 -27.35309019 32.47022018 -33.984375 29.796875 C-37.02406769 28.6817862 -37.02406769 28.6817862 -39.96484375 30.1171875 C-40.94582031 30.69726562 -41.92679688 31.27734375 -42.9375 31.875 C-47.59057674 34.39110816 -50.61144247 35.84526393 -56 35 C-57.216875 34.62875 -58.43375 34.2575 -59.6875 33.875 C-63.56153666 32.85166956 -63.67136414 33.3019666 -67 35 C-73.7206984 35.99140737 -78.80117056 35.283619 -84.44140625 31.484375 C-86.23005592 29.78089912 -87.11095716 28.29783379 -88 26 C-87.625 23.75 -87.625 23.75 -87 22 C-86.01 22 -85.02 22 -84 22 C-82.9935725 23.66279327 -81.99414593 25.32983484 -81 27 C-77.88284273 29.036818 -75.4254959 29.22172358 -71.75 29.125 C-70.41195312 29.09792969 -70.41195312 29.09792969 -69.046875 29.0703125 C-68.37140625 29.04710937 -67.6959375 29.02390625 -67 29 C-67.2475 28.01 -67.2475 28.01 -67.5 27 C-68.32524696 22.04851824 -68.80771239 17.76927476 -66.6875 13.125 C-65 11 -65 11 -62 9 C-58.94396162 8.68166267 -56.86664781 8.53778783 -54.125 10 C-52.29467507 13.25391098 -52.39847918 16.42253406 -53 20 C-54.10377639 22.81439088 -55.45401252 25.40494959 -57 28 C-51.53135543 26.98408579 -46.23609987 25.92908943 -41 24 C-41.495 23.01 -41.495 23.01 -42 22 C-42.65337047 16.89437644 -42.78605642 12.42495895 -39.8125 8.0625 C-36.83254144 4.50333823 -34.03304421 2.23640049 -29.3125 1.6875 C-27 2 -27 2 -25 4 C-24.29367239 9.02642441 -23.98701816 14.23870297 -26.9375 18.5625 C-27.618125 19.366875 -28.29875 20.17125 -29 21 C-29.33 21.66 -29.66 22.32 -30 23 C-25.05 23 -20.1 23 -15 23 C-15.99 20.525 -15.99 20.525 -17 18 C-17.68654142 12.7651217 -17.43077019 10.03917273 -14.375 5.6875 C-10.54824994 1.11340816 -6.08149979 -2.62983775 0 0 Z " fill="#0F0D0D" transform="translate(727,802)"/>
<path d="M0 0 C2 2 2 2 2.3125 4.4375 C2 7 2 7 0.93408203 8.57739258 C-1.8898325 10.65451325 -4.86770398 10.88684044 -8.2578125 11.32421875 C-9.00802673 11.43132172 -9.75824097 11.53842468 -10.53118896 11.64877319 C-13.06094547 12.00691814 -15.5928081 12.34703501 -18.125 12.6875 C-19.93391943 12.94016117 -21.74267222 13.19401789 -23.55126953 13.44897461 C-27.52609038 14.00708784 -31.50188741 14.55745492 -35.47851562 15.10253906 C-42.37860898 16.04947179 -49.27536145 17.0195714 -56.171875 17.9921875 C-64.73550714 19.19928257 -73.29972997 20.40192539 -81.86500549 21.5973053 C-91.31561763 22.91659699 -100.76431358 24.24634321 -110.20703125 25.62109375 C-111.03807373 25.7417067 -111.86911621 25.86231964 -112.7253418 25.98658752 C-116.46010728 26.52888373 -120.19421504 27.07504146 -123.92724609 27.62915039 C-125.19262207 27.81340576 -126.45799805 27.99766113 -127.76171875 28.1875 C-128.83381592 28.34605469 -129.90591309 28.50460937 -131.01049805 28.66796875 C-134.06132342 29.00681093 -136.93480519 29.19699547 -140 29 C-140.66 28.34 -141.32 27.68 -142 27 C-141.625 23.375 -141.625 23.375 -141 20 C-136.28004332 18.56249226 -131.73953667 17.55700376 -126.83862305 16.87426758 C-125.81500042 16.72957047 -125.81500042 16.72957047 -124.77069855 16.58195019 C-122.51833795 16.26476078 -120.26506471 15.95463631 -118.01171875 15.64453125 C-116.40767889 15.42003454 -114.80370169 15.1950897 -113.19978333 14.96972656 C-108.91455702 14.36886803 -104.62850995 13.77407454 -100.34225464 13.18060684 C-95.91391833 12.56657613 -91.48628582 11.94751345 -87.05859375 11.32885742 C-81.74053026 10.5861419 -76.42238099 9.84406122 -71.10385132 9.10469055 C-60.70872701 7.65944642 -50.31601542 6.19875565 -39.92578125 4.71875 C-36.50659448 4.23327603 -33.08736482 3.74810538 -29.66812134 3.26303101 C-27.56880245 2.96449186 -25.46965808 2.66472264 -23.37069702 2.36367798 C-20.50807026 1.95350823 -17.644772 1.54839596 -14.78125 1.14453125 C-13.96614456 1.02634033 -13.15103912 0.90814941 -12.31123352 0.78637695 C-8.19031032 0.21046957 -4.16866172 -0.31802243 0 0 Z " fill="#080606" transform="translate(778,857)"/>
<path d="M0 0 C0.495 0.99 0.495 0.99 1 2 C-0.08541039 4.70842517 -1.24147231 7.3037605 -2.49609375 9.93359375 C-2.87584854 10.74687134 -3.25560333 11.56014893 -3.64686584 12.39807129 C-4.90209771 15.08187483 -6.16871366 17.76008001 -7.4375 20.4375 C-9.19982669 24.16515922 -10.95895131 27.8943056 -12.71484375 31.625 C-13.16092987 32.57132797 -13.60701599 33.51765594 -14.06661987 34.49266052 C-16.99928679 40.75239071 -19.76545096 47.06438703 -22.44140625 53.4375 C-23.4682414 55.83925936 -24.49816538 58.2396696 -25.52908325 60.63967896 C-26.17278141 62.16308781 -26.80165224 63.69285298 -27.41500854 65.22872925 C-32.15598489 77.0789789 -32.15598489 77.0789789 -36.73828125 79.36767578 C-39.60118144 79.93057868 -42.08943992 80.10182639 -45 80 C-46.40282227 80.00181274 -46.40282227 80.00181274 -47.83398438 80.00366211 C-48.54876953 80.00245361 -49.26355469 80.00124512 -50 80 C-49.24026736 76.18250531 -47.66365334 72.86609237 -46.04296875 69.33984375 C-45.74389114 68.68599701 -45.44481354 68.03215027 -45.13667297 67.35848999 C-44.15655294 65.21680048 -43.17198241 63.07718724 -42.1875 60.9375 C-40.81443416 57.94100463 -39.44401048 54.94330579 -38.07421875 51.9453125 C-37.72934418 51.19109512 -37.3844696 50.43687775 -37.02914429 49.6598053 C-34.31071224 43.7051885 -31.64826896 37.72759333 -29.01171875 31.73632812 C-27.54189952 28.40739646 -26.04787605 25.09017192 -24.55078125 21.7734375 C-22.99419655 18.31098019 -21.54021041 14.85174659 -20.23046875 11.2890625 C-18.8659529 7.77018195 -17.60458702 4.80971018 -15 2 C-9.90653749 0.27923564 -5.34476984 -0.09630216 0 0 Z " fill="#F9F9F9" transform="translate(1027,788)"/>
<path d="M0 0 C10.10976745 3.94663286 10.10976745 3.94663286 13 8 C14.1468307 13.73566301 13.9316452 19.38594811 13.78125 25.2109375 C13.76631797 26.90627366 13.75493548 28.60164448 13.74694824 30.29702759 C13.7164885 34.74656483 13.63798301 39.19399297 13.54931641 43.6427002 C13.46728921 48.18729114 13.43090103 52.73222497 13.390625 57.27734375 C13.30497926 66.18581953 13.16855019 75.09273399 13 84 C7.62035782 83.33125995 5.56534791 82.15957256 2 78 C-0.38581507 74.42127739 -0.27003045 71.9020606 -0.22705078 67.7746582 C-0.22734283 67.04270233 -0.22763489 66.31074646 -0.22793579 65.55661011 C-0.22654274 63.13787979 -0.21098289 60.71945774 -0.1953125 58.30078125 C-0.19158228 56.62355213 -0.18873535 54.94632083 -0.18673706 53.26908875 C-0.17910132 48.85494977 -0.15945335 44.44094244 -0.1373291 40.02685547 C-0.1168694 35.52247905 -0.10773508 31.01808136 -0.09765625 26.51367188 C-0.0762074 17.67572342 -0.04207216 8.83787266 0 0 Z " fill="#F6F6F6" transform="translate(515,757)"/>
<path d="M0 0 C0.99 0.99 0.99 0.99 2 2 C1.79715109 4.63703581 1.41581497 6.41695448 -0.12930298 8.58348083 C-2.86719863 10.65665549 -5.35391 10.77338954 -8.74365234 11.22680664 C-9.4254657 11.32156784 -10.10727905 11.41632904 -10.80975342 11.51396179 C-13.06703092 11.82468002 -15.32626766 12.11738873 -17.5859375 12.41015625 C-19.16491921 12.62414052 -20.74374447 12.83928214 -22.32241821 13.05552673 C-26.48840958 13.6231644 -30.65626116 14.17575371 -34.82470703 14.72503662 C-39.0209898 15.28030293 -43.21553848 15.84833036 -47.41015625 16.41601562 C-52.14835856 17.05714783 -56.88664436 17.69731348 -61.6265564 18.32569885 C-63.07185642 18.51785957 -64.51713885 18.71015263 -65.96240234 18.90258789 C-66.99634912 19.03991884 -66.99634912 19.03991884 -68.0511837 19.18002415 C-73.43899032 19.90412652 -78.80378025 20.74347678 -84.16494751 21.64256287 C-87.16991655 22.0214227 -89.97562399 22.19561431 -93 22 C-95 20 -95 20 -95.3125 17.5625 C-94.93867956 14.4971724 -94.36292654 13.89573572 -92 12 C-90.06594849 11.40713501 -90.06594849 11.40713501 -87.84033203 11.09619141 C-86.99770309 10.97224503 -86.15507416 10.84829865 -85.28691101 10.72059631 C-84.3698085 10.59881516 -83.45270599 10.477034 -82.5078125 10.3515625 C-81.06502678 10.14490211 -81.06502678 10.14490211 -79.59309387 9.93406677 C-76.43865414 9.48544327 -73.28203821 9.05492326 -70.125 8.625 C-67.95242133 8.32053479 -65.77997718 8.01510819 -63.60766602 7.70874023 C-58.11971114 6.9380068 -52.62974717 6.18273109 -47.13909912 5.43145752 C-43.25287237 4.89731008 -39.36823274 4.35224184 -35.48370361 3.8059082 C-32.09231737 3.32973244 -28.70022731 2.85877466 -25.30780029 2.39007568 C-23.73950662 2.17333738 -22.17134794 1.95561975 -20.60333252 1.73687744 C-18.43281639 1.43547698 -16.26152302 1.14054282 -14.08984375 0.84765625 C-12.27794556 0.6002771 -12.27794556 0.6002771 -10.42944336 0.34790039 C-6.90337062 -0.00980258 -3.54031862 -0.19802749 0 0 Z " fill="#090707" transform="translate(731,893)"/>
<path d="M0 0 C4.59306496 1.4859916 7.43569245 3.85014682 11 7 C10.41683673 10.28834317 9.44143724 11.92646286 7.09375 14.27734375 C6.51496094 14.87353516 5.93617188 15.46972656 5.33984375 16.08398438 C4.11523279 17.31769542 2.88867342 18.54947554 1.66015625 19.77929688 C-0.78277235 22.30111738 -2.73088549 24.42674337 -4.23046875 27.62109375 C-3.86312045 31.41287538 -1.64901531 32.72515393 1.1875 35.125 C2.17105469 35.97320313 3.15460937 36.82140625 4.16796875 37.6953125 C6.41104592 39.52071324 8.6651422 41.29482939 11 43 C10.4352699 46.90829085 8.57868029 48.89920223 5.9375 51.75 C5.20402344 52.54921875 4.47054687 53.3484375 3.71484375 54.171875 C3.14894531 54.77515625 2.58304688 55.3784375 2 56 C-2.21116045 53.31453243 -5.87890977 50.4631402 -9.5625 47.0625 C-10.47128906 46.22847656 -11.38007812 45.39445313 -12.31640625 44.53515625 C-14.92686001 42.0690944 -17.47419564 39.5524385 -20 37 C-20.33 36.67 -20.66 36.34 -21 36 C-21.84042709 31.22602755 -22.00050393 26.83186823 -19.63671875 22.50390625 C-17.54329007 19.86436573 -15.32728286 17.43676051 -13 15 C-11.94180508 13.85359422 -10.88593816 12.70503654 -9.83203125 11.5546875 C-8.21399051 9.79047313 -6.59219735 8.03150509 -4.95019531 6.28955078 C-2.14867976 3.38414246 -2.14867976 3.38414246 0 0 Z " fill="#F9F9F9" transform="translate(961,806)"/>
<path d="M0 0 C5.10509723 3.70369799 10.02713702 7.59329368 14.875 11.625 C15.44629639 12.09204346 16.01759277 12.55908691 16.60620117 13.0402832 C20.80781173 16.56848237 22.74747488 18.81144898 23.375 24.25 C22.57905131 32.20948693 18.00633681 37.58784027 12.5625 43.125 C11.4373518 44.29287535 10.31363563 45.46213214 9.19140625 46.6328125 C8.65531738 47.19000977 8.11922852 47.74720703 7.56689453 48.32128906 C5.26170926 50.79097649 3.13092253 53.37916443 1 56 C-3.08963819 53.71461395 -6.46362104 51.04293074 -10 48 C-5.77527673 42.00638853 -1.00582167 36.73955629 4.12109375 31.515625 C6.24143549 29.2592422 6.24143549 29.2592422 5.82861328 27.04492188 C4.82240456 24.56171497 3.66659184 23.48453096 1.62109375 21.765625 C0.94755859 21.19199219 0.27402344 20.61835937 -0.41992188 20.02734375 C-1.12697266 19.44082031 -1.83402344 18.85429688 -2.5625 18.25 C-3.27341797 17.64800781 -3.98433594 17.04601562 -4.71679688 16.42578125 C-6.4711594 14.94222636 -8.23220941 13.46750401 -10 12 C-3.7454982 3.45738295 -3.7454982 3.45738295 0 0 Z " fill="#FAF9F9" transform="translate(1044,794)"/>
<path d="M0 0 C4 1.33333333 8 2.66666667 12 4 C12 26.44 12 48.88 12 72 C3 67 3 67 0 63 C-0.36076355 60.1272583 -0.36076355 60.1272583 -0.34057617 56.76269531 C-0.34034958 55.50169006 -0.34012299 54.24068481 -0.33988953 52.94146729 C-0.32457082 51.57034956 -0.30892285 50.19923548 -0.29296875 48.828125 C-0.28737086 47.42137098 -0.28310167 46.01461109 -0.28010559 44.60784912 C-0.26867185 40.91204576 -0.2392178 37.21659821 -0.20599365 33.52093506 C-0.17526077 29.74707858 -0.16159341 25.9731644 -0.14648438 22.19921875 C-0.11434629 14.79931727 -0.06316824 7.39970856 0 0 Z " fill="#FDFDFD" transform="translate(515,994)"/>
<path d="M0 0 C2.60332156 3.16063087 4.14038576 6.3431652 5.6875 10.125 C6.34298828 11.70667969 6.34298828 11.70667969 7.01171875 13.3203125 C8 16 8 16 8 18 C8.54527344 18.17015625 9.09054687 18.3403125 9.65234375 18.515625 C15.28384978 20.32540814 20.63939569 22.50345378 26 25 C23.05054406 26.96630396 20.26302526 28.25740853 17 29.625 C15.4221875 30.29402344 15.4221875 30.29402344 13.8125 30.9765625 C11 32 11 32 8 32 C7.82984375 32.54527344 7.6596875 33.09054687 7.484375 33.65234375 C5.67459186 39.28384978 3.49654622 44.63939569 1 50 C-1.63968345 46.86396582 -2.77939813 43.93132046 -4.0625 40.0625 C-5.93275002 35.41795162 -7.3554912 33.17325094 -11.875 30.9375 C-13.57000959 30.25746621 -15.27837579 29.60951913 -17 29 C-18.37841449 28.40366465 -19.75394756 27.80057223 -21.125 27.1875 C-22.07375 26.795625 -23.0225 26.40375 -24 26 C-24 25.34 -24 24.68 -24 24 C-21.5433053 22.99580363 -19.08481647 21.99649499 -16.625 21 C-15.92632813 20.71382813 -15.22765625 20.42765625 -14.5078125 20.1328125 C-9.2265625 18 -9.2265625 18 -7 18 C-6.82984375 17.45472656 -6.6596875 16.90945313 -6.484375 16.34765625 C-4.67459186 10.71615022 -2.49654622 5.36060431 0 0 Z " fill="#F8F8F8" transform="translate(842,370)"/>
<path d="M0 0 C2 2 2 2 2.3125 4.4375 C2 7 2 7 0.79541016 8.59619141 C-1.50373047 10.39386051 -3.1517501 10.62144536 -6.0390625 11.0234375 C-7.10930664 11.1790918 -8.17955078 11.33474609 -9.28222656 11.49511719 C-10.5090918 11.66172852 -11.73595703 11.82833984 -13 12 C-14.41916619 12.20583964 -15.83810204 12.41327192 -17.25683594 12.62207031 C-21.15463314 13.19261058 -25.05487959 13.74368894 -28.95654297 14.28710938 C-31.39219873 14.62740289 -33.82693929 14.97381151 -36.26171875 15.3203125 C-37.82807268 15.53943683 -39.3944772 15.7581999 -40.9609375 15.9765625 C-41.67978119 16.07965729 -42.39862488 16.18275208 -43.13925171 16.28897095 C-47.11770596 16.83562115 -50.98654543 17.28918394 -55 17 C-55.66 16.34 -56.32 15.68 -57 15 C-56.8125 12 -56.8125 12 -56 9 C-53.10922138 7.07281426 -52.05480311 6.67427718 -48.77563477 6.23803711 C-47.92787979 6.12129135 -47.08012482 6.00454559 -46.2066803 5.88426208 C-45.29413986 5.76647903 -44.38159943 5.64869598 -43.44140625 5.52734375 C-42.50070786 5.39936905 -41.56000946 5.27139435 -40.59080505 5.13954163 C-37.58230436 4.73153032 -34.5725269 4.33408083 -31.5625 3.9375 C-28.55633421 3.53544425 -25.55048171 3.13119419 -22.54490662 2.7247467 C-20.67442695 2.47244144 -18.80355568 2.22301885 -16.93226624 1.97679138 C-16.0813591 1.86319778 -15.23045197 1.74960419 -14.35375977 1.63256836 C-13.60780045 1.53423203 -12.86184113 1.43589569 -12.09327698 1.33457947 C-9.9897617 1.03065879 -9.9897617 1.03065879 -7.92320251 0.47218323 C-5.21920978 -0.19169902 -2.76981071 -0.18063983 0 0 Z " fill="#0A0808" transform="translate(756,918)"/>
<path d="M0 0 C0.495 0.495 0.495 0.495 1 1 C0.71269945 3.33944736 0.38063221 5.6739143 0 8 C-4.25956551 9.96069439 -8.51176982 10.68801035 -13.1171875 11.32421875 C-13.89256866 11.43474075 -14.66794983 11.54526276 -15.46682739 11.65913391 C-17.10193953 11.89003022 -18.7375243 12.11760108 -20.37353516 12.34204102 C-22.86152675 12.68563931 -25.34664554 13.04629436 -27.83203125 13.40820312 C-29.42693772 13.63125205 -31.0219859 13.85329047 -32.6171875 14.07421875 C-33.35282928 14.18247482 -34.08847107 14.2907309 -34.84640503 14.40226746 C-39.48779593 15.02010826 -43.39320586 14.8635377 -48 14 C-48.3629375 8.55593743 -48.3629375 8.55593743 -46.94726562 6.38745117 C-44.08882691 4.35077775 -41.05425116 4.07315387 -37.65625 3.61328125 C-36.93191772 3.50654587 -36.20758545 3.39981049 -35.46130371 3.2898407 C-33.92558385 3.06638138 -32.38895895 2.84906814 -30.8515625 2.63745117 C-28.53397031 2.31719419 -26.22029085 1.97574046 -23.90625 1.63085938 C-7.66515883 -0.72628767 -7.66515883 -0.72628767 0 0 Z " fill="#0A0808" transform="translate(684,929)"/>
<path d="M0 0 C0.58007812 0.2165625 1.16015625 0.433125 1.7578125 0.65625 C10.26306003 3.68782338 15.62418692 3.12697022 24 0 C23.71125 0.845625 23.4225 1.69125 23.125 2.5625 C22.75375 3.696875 22.3825 4.83125 22 6 C21.3503125 7.7015625 21.3503125 7.7015625 20.6875 9.4375 C19.82064474 13.92938636 20.98975235 15.9795047 23 20 C23 20.99 23 21.98 23 23 C20.0780601 22.4687382 17.63151292 21.84523542 14.875 20.6875 C9.24098181 19.68791613 5.13473951 21.75297114 0 24 C0.20496094 23.39671875 0.40992188 22.7934375 0.62109375 22.171875 C0.89050781 21.37265625 1.15992188 20.5734375 1.4375 19.75 C1.70433594 18.96109375 1.97117187 18.1721875 2.24609375 17.359375 C2.61927734 16.19148438 2.61927734 16.19148438 3 15 C3.35578125 14.00613281 3.35578125 14.00613281 3.71875 12.9921875 C4.10291641 10.27100878 3.27374969 8.81381251 2.0625 6.375 C0 2.16610169 0 2.16610169 0 0 Z " fill="#F3F3F3" transform="translate(894,305)"/>
<path d="M0 0 C0.66 0.66 1.32 1.32 2 2 C1.79776151 4.62910037 1.41049752 6.41522107 -0.11328125 8.5859375 C-2.92208449 10.6910861 -5.54022698 10.77275262 -9 11.1875 C-9.66265869 11.26790527 -10.32531738 11.34831055 -11.00805664 11.43115234 C-16.68433773 12.07240872 -22.29683733 12.21342397 -28 12 C-28.6875 9.1875 -28.6875 9.1875 -29 6 C-26.87450757 3.09399887 -24.84191221 2.48033388 -21.375 1.875 C-20.48941406 1.7203125 -19.60382812 1.565625 -18.69140625 1.40625 C-12.47729039 0.46827025 -6.29749604 -0.38556098 0 0 Z " fill="#0A0808" transform="translate(823,851)"/>
<path d="M0 0 C0.66 0 1.32 0 2 0 C2.1959375 0.60328125 2.391875 1.2065625 2.59375 1.828125 C4.34272508 6.50211014 5.64505297 9.31718008 10.25 11.5625 C11.48837488 12.07095684 12.73531853 12.56104502 14 13 C11.06171403 15.50298434 8.82097239 16.46930939 5 17 C4.01 19.97 3.02 22.94 2 26 C1.34 26 0.68 26 0 26 C-0.1959375 25.46890625 -0.391875 24.9378125 -0.59375 24.390625 C-2.85858492 19.04092873 -5.04092873 16.85858492 -10.390625 14.59375 C-10.92171875 14.3978125 -11.4528125 14.201875 -12 14 C-12 13.34 -12 12.68 -12 12 C-10.7625 11.690625 -9.525 11.38125 -8.25 11.0625 C-5.39227638 10.02885529 -4.24478987 9.3792898 -2.578125 6.796875 C-1.60484144 4.55409114 -0.74210701 2.32884897 0 0 Z " fill="#F1F1F1" transform="translate(798,583)"/>
<path d="M0 0 C2 3 2 3 2.5625 6.5 C3.5943729 10.07710693 3.5943729 10.07710693 6.12890625 11.12109375 C8.40718296 11.86625781 10.65771385 12.49395052 13 13 C11.12733197 15.0300807 10.30031002 15.92299743 7.5625 16.625 C3.47513029 18.81822277 2.550531 22.79017841 1 27 C0.34 27 -0.32 27 -1 27 C-1.1959375 26.38511719 -1.391875 25.77023437 -1.59375 25.13671875 C-3.32975719 20.19296798 -3.32975719 20.19296798 -7.046875 16.734375 C-9.47701322 15.81307492 -9.47701322 15.81307492 -13 15 C-13 14.34 -13 13.68 -13 13 C-12.38511719 12.88785156 -11.77023437 12.77570313 -11.13671875 12.66015625 C-8.49414431 12.01531751 -6.36534692 11.35702852 -4 10 C-2.35968765 7.10992586 -1.7184346 4.22012649 -1 1 C-0.67 0.67 -0.34 0.34 0 0 Z " fill="#F2F2F2" transform="translate(994,353)"/>
<path d="M0 0 C2.5 1.625 2.5 1.625 4 4 C4.5625 6.9375 4.5625 6.9375 4 10 C1.9375 12.875 1.9375 12.875 -1 15 C-4.99048721 15.63007693 -7.01685857 15.63021887 -10.4375 13.4375 C-12.60396028 10.05782196 -12.56288002 7.94016013 -12 4 C-9.10910635 -0.69770218 -5.08522732 -1.02121368 0 0 Z " fill="#F7F7F7" transform="translate(964,149)"/>
<path d="M0 0 C0.66 0.99 1.32 1.98 2 3 C5.66617627 3.49993313 7.62705248 3.19044129 10.9375 1.5 C15.49694474 -0.73319742 19.16866084 -0.62343461 23.9375 1 C24.9584375 1.495 24.9584375 1.495 26 2 C26 2.66 26 3.32 26 4 C25.3709375 4.02578125 24.741875 4.0515625 24.09375 4.078125 C18.53416048 4.44653153 14.67067232 5.44580461 9.81640625 8.1328125 C7.08511521 9.4367837 4.95484325 9.48102099 2 9 C1.54625 8.505 1.0925 8.01 0.625 7.5 C-1.4534696 5.58141268 -2.41201878 5.79791779 -5.1875 5.8125 C-6.445625 5.874375 -7.70375 5.93625 -9 6 C-9.66 7.32 -10.32 8.64 -11 10 C-11.99 10 -12.98 10 -14 10 C-14.375 7.8125 -14.375 7.8125 -14 5 C-9.58077649 0.02837355 -6.56573041 -0.87543072 0 0 Z " fill="#F2F2F2" transform="translate(677,979)"/>
<path d="M0 0 C1.03125 0.350625 2.0625 0.70125 3.125 1.0625 C8.27300466 2.307985 12.00073377 1.25249282 17 0 C16.83242188 0.67546875 16.66484375 1.3509375 16.4921875 2.046875 C16.28851562 2.93890625 16.08484375 3.8309375 15.875 4.75 C15.66617188 5.63171875 15.45734375 6.5134375 15.2421875 7.421875 C14.96426024 10.38045546 15.63558205 11.44305928 17 14 C16.67 14.99 16.34 15.98 16 17 C15.43152344 16.83242188 14.86304688 16.66484375 14.27734375 16.4921875 C8.72193992 15.02682222 5.37435172 14.94173764 0 17 C0.5259375 15.7625 0.5259375 15.7625 1.0625 14.5 C2.44874767 9.32467535 1.7007979 5.10239371 0 0 Z " fill="#F0F0F0" transform="translate(916,509)"/>
<path d="M0 0 C0.721875 0.144375 1.44375 0.28875 2.1875 0.4375 C3.5796875 0.7159375 3.5796875 0.7159375 5 1 C5.804375 1.226875 6.60875 1.45375 7.4375 1.6875 C10.72586018 2.08851953 12.9535769 1.20439983 16 0 C15.91621094 0.65226562 15.83242188 1.30453125 15.74609375 1.9765625 C15.17445896 6.88249144 14.84688018 11.13127185 16 16 C15.43152344 15.82082031 14.86304688 15.64164063 14.27734375 15.45703125 C8.34291158 13.82233792 5.3938615 14.01616172 0 17 C0.144375 16.29875 0.28875 15.5975 0.4375 14.875 C0.623125 13.92625 0.80875 12.9775 1 12 C1.226875 11.030625 1.45375 10.06125 1.6875 9.0625 C2.04936063 5.5162658 1.3254503 3.27464193 0 0 Z " fill="#F2F1F1" transform="translate(844,101)"/>
<path d="M0 0 C0.58007812 0.16757812 1.16015625 0.33515625 1.7578125 0.5078125 C6.8492308 1.835278 10.03561901 2.29125276 15 0 C14.91621094 0.66386719 14.83242188 1.32773437 14.74609375 2.01171875 C13.94574958 8.54720848 13.94574958 8.54720848 15 15 C13.824375 14.62875 12.64875 14.2575 11.4375 13.875 C6.96736563 12.72758583 4.2720246 13.39799077 0 15 C0.16757812 14.41992188 0.33515625 13.83984375 0.5078125 13.2421875 C1.835278 8.1507692 2.29125276 4.96438099 0 0 Z " fill="#EDEDED" transform="translate(703,539)"/>
<path d="M0 0 C3 3.625 3 3.625 3 7 C5.31 7.66 7.62 8.32 10 9 C10 9.66 10 10.32 10 11 C7.69 11.66 5.38 12.32 3 13 C2.87625 13.78375 2.7525 14.5675 2.625 15.375 C2 18 2 18 0 20 C-1.4606285 17.35261084 -2 16.10551666 -2 13 C-4.31 12.34 -6.62 11.68 -9 11 C-9 10.34 -9 9.68 -9 9 C-8.071875 8.62875 -7.14375 8.2575 -6.1875 7.875 C-2.4739697 5.69057041 -1.57312496 3.93281241 0 0 Z " fill="#EFEFEF" transform="translate(980,226)"/>
<path d="M0 0 C1.8125 1.125 1.8125 1.125 3 3 C3.4375 6 3.4375 6 3 9 C0.88310295 11.35210784 -0.44041515 11.91810953 -3.5625 12.375 C-6 12 -6 12 -7.875 10.9375 C-9.69848531 7.79705307 -8.8658284 5.4014687 -8 2 C-4.76746204 -0.15502531 -3.74849077 -0.46856135 0 0 Z " fill="#EFEFEF" transform="translate(947,422)"/>
<path d="M0 0 C2.375 0.875 2.375 0.875 4.375 2.875 C4.1875 6.375 4.1875 6.375 3.375 9.875 C0.15126323 12.02415785 -0.89203674 12.25786803 -4.625 11.875 C-6.625 9.875 -6.625 9.875 -7 7 C-6.625 3.875 -6.625 3.875 -4.9375 1.4375 C-2.625 -0.125 -2.625 -0.125 0 0 Z " fill="#F0F0F0" transform="translate(900.625,709.125)"/>
<path d="M0 0 C2.375 0.875 2.375 0.875 4.375 2.875 C4.1875 6.375 4.1875 6.375 3.375 9.875 C0.16691085 12.0137261 -0.90198497 12.35230962 -4.625 11.875 C-6.79051116 8.62673326 -7.17656953 7.64405843 -6.625 3.875 C-4.53793823 0.9376538 -3.67791695 -0.1751389 0 0 Z " fill="#F5F5F5" transform="translate(921.625,706.125)"/>
<path d="M0 0 C1.32 0.33 2.64 0.66 4 1 C3.526508 5.97166604 2.14907485 9.10996636 -1 13 C-1.99 13 -2.98 13 -4 13 C-4.33 12.67 -4.66 12.34 -5 12 C-4.69457852 6.70602769 -3.63172245 3.86602713 0 0 Z " fill="#EBEAEA" transform="translate(720,807)"/>
<path d="M0 0 C0.433125 0.61875 0.86625 1.2375 1.3125 1.875 C2.99740483 4.2197245 2.99740483 4.2197245 6 6 C5.071875 6.12375 5.071875 6.12375 4.125 6.25 C1.81562433 6.81258459 1.81562433 6.81258459 0.75 9.0625 C0.5025 9.701875 0.255 10.34125 0 11 C-1.65 9.02 -3.3 7.04 -5 5 C-3.68 4.67 -2.36 4.34 -1 4 C-0.67 2.68 -0.34 1.36 0 0 Z " fill="#E5E5E5" transform="translate(785,460)"/>
<path d="M0 0 C0.66 0 1.32 0 2 0 C1.67 3.63 1.34 7.26 1 11 C0.34 11 -0.32 11 -1 11 C-1.02688151 9.35425434 -1.04634123 7.70838587 -1.0625 6.0625 C-1.07410156 5.14597656 -1.08570313 4.22945312 -1.09765625 3.28515625 C-1 1 -1 1 0 0 Z " fill="#3F3F3F" transform="translate(391,744)"/>
<path d="M0 0 C0.33 0 0.66 0 1 0 C0.67 3.3 0.34 6.6 0 10 C-0.99 10.33 -1.98 10.66 -3 11 C-2.53199289 6.94393835 -2.12046792 3.53411321 0 0 Z " fill="#313131" transform="translate(1065,556)"/>
<path d="M0 0 C-0.33 0.99 -0.66 1.98 -1 3 C-3.06640625 3.94921875 -3.06640625 3.94921875 -5.5625 4.6875 C-6.38878906 4.93886719 -7.21507812 5.19023438 -8.06640625 5.44921875 C-8.70449219 5.63097656 -9.34257813 5.81273437 -10 6 C-10 5.01 -10 4.02 -10 3 C-8.70990357 2.49596232 -7.41786211 1.99690074 -6.125 1.5 C-5.04605469 1.08234375 -5.04605469 1.08234375 -3.9453125 0.65625 C-2 0 -2 0 0 0 Z " fill="#2D2D2D" transform="translate(642,694)"/>
<path d="M0 0 C0.66 0 1.32 0 2 0 C1.34 3.63 0.68 7.26 0 11 C-0.66 11 -1.32 11 -2 11 C-1.85892253 9.54119891 -1.71197585 8.08296449 -1.5625 6.625 C-1.48128906 5.81289063 -1.40007813 5.00078125 -1.31640625 4.1640625 C-1 2 -1 2 0 0 Z " fill="#282828" transform="translate(524,689)"/>
<path d="M0 0 C4.12751449 0.60698743 7.3321148 2.03810791 11 4 C11 4.66 11 5.32 11 6 C9.5410574 5.52269162 8.08286504 5.04308958 6.625 4.5625 C5.81289063 4.29566406 5.00078125 4.02882813 4.1640625 3.75390625 C2 3 2 3 0 2 C0 1.34 0 0.68 0 0 Z " fill="#2A2A2A" transform="translate(496,653)"/>
<path d="M0 0 C3.5875213 1.33250791 6.8364623 2.830717 10 5 C10 5.66 10 6.32 10 7 C6.00118212 6.38479725 3.19641774 4.39731331 0 2 C0 1.34 0 0.68 0 0 Z " fill="#2B2B2B" transform="translate(955,644)"/>
<path d="M0 0 C0.66 0 1.32 0 2 0 C0.85569823 3.87302138 -0.23320098 7.00263439 -3 10 C-3.66 10 -4.32 10 -5 10 C-3.66749209 6.4124787 -2.169283 3.1635377 0 0 Z " fill="#272727" transform="translate(547,638)"/>
<path d="M0 0 C0.66 0 1.32 0 2 0 C0.66749209 3.5875213 -0.830717 6.8364623 -3 10 C-3.66 10 -4.32 10 -5 10 C-3.85569823 6.12697862 -2.76679902 2.99736561 0 0 Z " fill="#282828" transform="translate(1037,626)"/>
<path d="M0 0 C-1.55603771 3.81936528 -3.95604931 6.26044438 -7 9 C-7.66 9 -8.32 9 -9 9 C-7.45665977 5.21180126 -4.44676575 0 0 0 Z " fill="#232323" transform="translate(585,594)"/>
<path d="M0 0 C3.79379058 1.49041773 5.68343758 3.69062512 8 7 C8 7.66 8 8.32 8 9 C4.20620942 7.50958227 2.31656242 5.30937488 0 2 C0 1.34 0 0.68 0 0 Z " fill="#272727" transform="translate(825,771)"/>
<path d="M0 0 C2.72957339 2.35735884 3.88893396 4.58133526 5 8 C5 8.99 5 9.98 5 11 C4.01 10.67 3.02 10.34 2 10 C0.47839986 6.3962102 0 3.94779314 0 0 Z " fill="#2B2B2B" transform="translate(1118,732)"/>
<path d="M0 0 C3.36295835 1.44126786 5.62927102 3.20592655 8 6 C8 6.99 8 7.98 8 9 C6 9 6 9 4.4921875 7.5390625 C3.95851563 6.90742187 3.42484375 6.27578125 2.875 5.625 C2.06675781 4.68527344 2.06675781 4.68527344 1.2421875 3.7265625 C0 2 0 2 0 0 Z " fill="#222222" transform="translate(1106,717)"/>
<path d="M0 0 C0.66 0 1.32 0 2 0 C0.66749209 3.5875213 -0.830717 6.8364623 -3 10 C-3.66 10 -4.32 10 -5 10 C-3.66749209 6.4124787 -2.169283 3.1635377 0 0 Z " fill="#252525" transform="translate(409,691)"/>
<path d="M0 0 C-1.49041773 3.79379058 -3.69062512 5.68343758 -7 8 C-7.66 8 -8.32 8 -9 8 C-7.47364599 4.11473526 -4.49771687 0 0 0 Z " fill="#252525" transform="translate(986,695)"/>
<path d="M0 0 C0 0.66 0 1.32 0 2 C-1.42578125 3.2890625 -1.42578125 3.2890625 -3.3125 4.625 C-3.92738281 5.07101562 -4.54226563 5.51703125 -5.17578125 5.9765625 C-7 7 -7 7 -10 7 C-10 6.34 -10 5.68 -10 5 C-8.3203125 3.7109375 -8.3203125 3.7109375 -6.125 2.375 C-5.40570312 1.92898438 -4.68640625 1.48296875 -3.9453125 1.0234375 C-2 0 -2 0 0 0 Z " fill="#292929" transform="translate(658,685)"/>
<path d="M0 0 C0.66 0 1.32 0 2 0 C3.20272819 2.40545638 3.10071472 3.94996953 3.0625 6.625 C3.05347656 7.44226563 3.04445313 8.25953125 3.03515625 9.1015625 C3.02355469 9.72804688 3.01195312 10.35453125 3 11 C2.34 10.67 1.68 10.34 1 10 C0.5859375 7.71484375 0.5859375 7.71484375 0.375 4.9375 C0.30023437 4.01839844 0.22546875 3.09929688 0.1484375 2.15234375 C0.09945312 1.44207031 0.05046875 0.73179687 0 0 Z " fill="#2C2C2C" transform="translate(797,683)"/>
<path d="M0 0 C0.66 0 1.32 0 2 0 C1.32829194 3.8063457 0.27253436 7.35206816 -1 11 C-1.66 11 -2.32 11 -3 11 C-2.69078116 9.54096742 -2.37751201 8.08279278 -2.0625 6.625 C-1.88847656 5.81289063 -1.71445312 5.00078125 -1.53515625 4.1640625 C-1 2 -1 2 0 0 Z " fill="#272727" transform="translate(530,671)"/>
<path d="M0 0 C-1.49041773 3.79379058 -3.69062512 5.68343758 -7 8 C-7.66 8 -8.32 8 -9 8 C-7.47364599 4.11473526 -4.49771687 0 0 0 Z " fill="#202020" transform="translate(436,664)"/>
<path d="M0 0 C4.38462134 0.50109958 6.8000997 1.98295115 10 5 C10 5.66 10 6.32 10 7 C5.56541027 5.6062718 3.12621626 3.39417765 0 0 Z " fill="#262626" transform="translate(513,662)"/>
<path d="M0 0 C0 0.66 0 1.32 0 2 C-1.28913487 2.67154933 -2.58140204 3.33708859 -3.875 4 C-4.59429687 4.37125 -5.31359375 4.7425 -6.0546875 5.125 C-8 6 -8 6 -10 6 C-9 3 -9 3 -6.125 1.3125 C-3 0 -3 0 0 0 Z " fill="#2B2B2B" transform="translate(452,655)"/>
<path d="M0 0 C3.63 0 7.26 0 11 0 C11 0.99 11 1.98 11 3 C9.35333797 2.8864371 7.70763918 2.75882619 6.0625 2.625 C5.14597656 2.55539062 4.22945313 2.48578125 3.28515625 2.4140625 C2.15400391 2.20910156 2.15400391 2.20910156 1 2 C0.67 1.34 0.34 0.68 0 0 Z " fill="#343434" transform="translate(478,650)"/>
<path d="M0 0 C0.66 0 1.32 0 2 0 C1.43697042 3.94120709 0.3208055 6.7508723 -2 10 C-2.66 10 -3.32 10 -4 10 C-2.8905928 6.51329166 -1.73662334 3.22515763 0 0 Z " fill="#282828" transform="translate(1045,609)"/>
<path d="M0 0 C-1.5277867 3.43752007 -3.50181056 6.18953688 -6 9 C-6.66 9 -7.32 9 -8 9 C-6.68994234 5.06982701 -4.75047804 0 0 0 Z " fill="#212121" transform="translate(572,608)"/>
<path d="M0 0 C0.99 0 1.98 0 3 0 C4.60546875 1.75 4.60546875 1.75 6.1875 4 C6.71730469 4.7425 7.24710937 5.485 7.79296875 6.25 C8.19128906 6.8275 8.58960938 7.405 9 8 C4.19741373 7.17904508 2.84138848 4.78851797 0 1 C0 0.67 0 0.34 0 0 Z " fill="#202020" transform="translate(411,815)"/>
<path d="M0 0 C0.66 0 1.32 0 2 0 C2.99 3.63 3.98 7.26 5 11 C4.34 11 3.68 11 3 11 C2.49384702 9.73160474 1.99530901 8.46016898 1.5 7.1875 C1.2215625 6.47980469 0.943125 5.77210938 0.65625 5.04296875 C0 3 0 3 0 0 Z " fill="#212121" transform="translate(394,781)"/>
<path d="M0 0 C0.66 0 1.32 0 2 0 C1.34 3.63 0.68 7.26 0 11 C-0.66 11 -1.32 11 -2 11 C-1.85892253 9.54119891 -1.71197585 8.08296449 -1.5625 6.625 C-1.48128906 5.81289063 -1.40007812 5.00078125 -1.31640625 4.1640625 C-1 2 -1 2 0 0 Z " fill="#272727" transform="translate(394,726)"/>
<path d="M0 0 C-1.28813342 0.83878455 -2.58063256 1.67086783 -3.875 2.5 C-4.59429688 2.9640625 -5.31359375 3.428125 -6.0546875 3.90625 C-8 5 -8 5 -10 5 C-9 2 -9 2 -6.6875 0.25 C-3.67809479 -1.14972335 -3.01958327 -0.95287489 0 0 Z " fill="#212121" transform="translate(971,708)"/>
<path d="M0 0 C1.4835001 0.42257276 2.96176424 0.86356322 4.4375 1.3125 C5.67306641 1.67794922 5.67306641 1.67794922 6.93359375 2.05078125 C7.61550781 2.36402344 8.29742188 2.67726563 9 3 C9.33 3.99 9.66 4.98 10 6 C6.51329166 4.8905928 3.22515763 3.73662334 0 2 C0 1.34 0 0.68 0 0 Z " fill="#202020" transform="translate(1074,698)"/>
<path d="M0 0 C4.95 1.98 4.95 1.98 10 4 C10 4.66 10 5.32 10 6 C5.87248551 5.39301257 2.6678852 3.96189209 -1 2 C-0.67 1.34 -0.34 0.68 0 0 Z " fill="#222222" transform="translate(559,691)"/>
<path d="M0 0 C0.33 0.99 0.66 1.98 1 3 C0.0479279 4.00596297 -0.91187346 5.00461563 -1.875 6 C-2.40867187 6.556875 -2.94234375 7.11375 -3.4921875 7.6875 C-5 9 -5 9 -7 9 C-5.44499019 5.18315774 -2.96404505 2.80804268 0 0 Z " fill="#1D1D1D" transform="translate(998,682)"/>
<path d="M0 0 C3.5875213 1.33250791 6.8364623 2.830717 10 5 C10 5.66 10 6.32 10 7 C6.4124787 5.66749209 3.1635377 4.169283 0 2 C0 1.34 0 0.68 0 0 Z " fill="#1E1E1E" transform="translate(542,682)"/>
<path d="M0 0 C-1.5277867 3.43752007 -3.50181056 6.18953688 -6 9 C-6.66 9 -7.32 9 -8 9 C-6.68994234 5.06982701 -4.75047804 0 0 0 Z " fill="#232323" transform="translate(422,677)"/>
<path d="M0 0 C0.33 0.99 0.66 1.98 1 3 C-0.40445835 5.2636564 -2.1967913 7.0208685 -4 9 C-4.99 8.67 -5.98 8.34 -7 8 C-4.69 5.36 -2.38 2.72 0 0 Z " fill="#222222" transform="translate(670,671)"/>
<path d="M0 0 C3.48670834 1.1094072 6.77484237 2.26337666 10 4 C10 4.66 10 5.32 10 6 C8.5164999 5.57742724 7.03823576 5.13643678 5.5625 4.6875 C4.73878906 4.44386719 3.91507813 4.20023438 3.06640625 3.94921875 C2.04353516 3.47935547 2.04353516 3.47935547 1 3 C0.67 2.01 0.34 1.02 0 0 Z " fill="#202020" transform="translate(1004,671)"/>
<path d="M0 0 C0.66 0 1.32 0 2 0 C1.57742724 1.4835001 1.13643678 2.96176424 0.6875 4.4375 C0.44386719 5.26121094 0.20023438 6.08492187 -0.05078125 6.93359375 C-0.36402344 7.61550781 -0.67726563 8.29742188 -1 9 C-1.99 9.33 -2.98 9.66 -4 10 C-3.52449439 8.51965236 -3.04448784 7.04074979 -2.5625 5.5625 C-2.29566406 4.73878906 -2.02882813 3.91507813 -1.75390625 3.06640625 C-1 1 -1 1 0 0 Z " fill="#242424" transform="translate(538,654)"/>
<path d="M0 0 C0 0.66 0 1.32 0 2 C-3.63 2.33 -7.26 2.66 -11 3 C-8.89427904 -1.21144191 -4.11694326 -0.07767817 0 0 Z " fill="#242424" transform="translate(470,650)"/>
<path d="M0 0 C3.43752007 1.5277867 6.18953688 3.50181056 9 6 C9 6.66 9 7.32 9 8 C5.56247993 6.4722133 2.81046312 4.49818944 0 2 C0 1.34 0 0.68 0 0 Z " fill="#1E1E1E" transform="translate(940,632)"/>
<path d="M0 0 C0.66 0 1.32 0 2 0 C1.57742724 1.4835001 1.13643678 2.96176424 0.6875 4.4375 C0.44386719 5.26121094 0.20023438 6.08492187 -0.05078125 6.93359375 C-0.36402344 7.61550781 -0.67726563 8.29742188 -1 9 C-1.99 9.33 -2.98 9.66 -4 10 C-3.52449439 8.51965236 -3.04448784 7.04074979 -2.5625 5.5625 C-2.29566406 4.73878906 -2.02882813 3.91507813 -1.75390625 3.06640625 C-1 1 -1 1 0 0 Z " fill="#222222" transform="translate(1053,592)"/>
<path d="M0 0 C0 2 0 2 -1.4609375 3.5078125 C-2.09257813 4.04148437 -2.72421875 4.57515625 -3.375 5.125 C-4.00148438 5.66382813 -4.62796875 6.20265625 -5.2734375 6.7578125 C-7 8 -7 8 -9 8 C-7.47364599 4.11473526 -4.49771687 0 0 0 Z " fill="#1D1D1D" transform="translate(599,582)"/>
<path d="M0 0 C0.66 0 1.32 0 2 0 C1.34 3.3 0.68 6.6 0 10 C-0.99 10.33 -1.98 10.66 -3 11 C-2.01 7.37 -1.02 3.74 0 0 Z " fill="#242424" transform="translate(1059,574)"/>
<path d="M0 0 C0.66 0 1.32 0 2 0 C1.67 3.63 1.34 7.26 1 11 C0.34 11 -0.32 11 -1 11 C-1.125 3.375 -1.125 3.375 0 0 Z " fill="#242424" transform="translate(1071,519)"/>
<path d="M0 0 C0.66 0 1.32 0 2 0 C5.22265625 5.17578125 5.22265625 5.17578125 6 7 C5.67 7.99 5.34 8.98 5 10 C4.16121545 8.71186658 3.32913217 7.41936744 2.5 6.125 C2.0359375 5.40570312 1.571875 4.68640625 1.09375 3.9453125 C0 2 0 2 0 0 Z " fill="#1A1A1A" transform="translate(401,799)"/>
<path d="M0 0 C3.66881155 0.70554068 6.70450534 2.27735506 10 4 C10 4.66 10 5.32 10 6 C5.16743695 5.58578031 3.17320782 3.53586014 0 0 Z " fill="#1D1D1D" transform="translate(852,798)"/>
<path d="M0 0 C3.36179774 1.44077046 5.59156268 3.24750021 8 6 C8 6.66 8 7.32 8 8 C4.63820226 6.55922954 2.40843732 4.75249979 0 2 C0 1.34 0 0.68 0 0 Z " fill="#1D1D1D" transform="translate(838,786)"/>
<path d="M0 0 C0.66 0 1.32 0 2 0 C6 6.625 6 6.625 6 10 C5.34 10 4.68 10 4 10 C0 3.375 0 3.375 0 0 Z " fill="#1A1A1A" transform="translate(816,755)"/>
<path d="M0 0 C0.66 0 1.32 0 2 0 C1.01 3.3 0.02 6.6 -1 10 C-1.66 10 -2.32 10 -3 10 C-2.49287967 6.28111761 -1.88391785 3.26545761 0 0 Z " fill="#202020" transform="translate(400,708)"/>
<path d="M0 0 C4.43458973 1.3937282 6.87378374 3.60582235 10 7 C6.00118212 6.38479725 3.19641774 4.39731331 0 2 C0 1.34 0 0.68 0 0 Z " fill="#1D1D1D" transform="translate(1091,706)"/>
<path d="M0 0 C3.3 0.99 6.6 1.98 10 3 C10 3.66 10 4.32 10 5 C6.28111761 4.49287967 3.26545761 3.88391785 0 2 C0 1.34 0 0.68 0 0 Z " fill="#212121" transform="translate(1039,685)"/>
<path d="M0 0 C3.9492568 0.55105909 7.34920174 1.38935371 11 3 C11 3.66 11 4.32 11 5 C6.87248551 4.39301257 3.6678852 2.96189209 0 1 C0 0.67 0 0.34 0 0 Z " fill="#1D1D1D" transform="translate(1021,679)"/>
<path d="M0 0 C0.66 0 1.32 0 2 0 C0.7580393 3.43927579 -0.55740284 6.25207819 -3 9 C-3.66 9 -4.32 9 -5 9 C-3.7580393 5.56072421 -2.44259716 2.74792181 0 0 Z " fill="#1A1A1A" transform="translate(1017,658)"/>
<path d="M0 0 C0.66 0 1.32 0 2 0 C1.39009109 3.55780196 0.4216319 6.6828589 -1 10 C-1.66 10 -2.32 10 -3 10 C-2.39009109 6.44219804 -1.4216319 3.3171411 0 0 Z " fill="#1E1E1E" transform="translate(678,655)"/>
<path d="M0 0 C0.33 0.99 0.66 1.98 1 3 C0.00390625 4.82421875 0.00390625 4.82421875 -1.4375 6.6875 C-1.91058594 7.31011719 -2.38367187 7.93273437 -2.87109375 8.57421875 C-3.24363281 9.04472656 -3.61617187 9.51523437 -4 10 C-4.33 9.01 -4.66 8.02 -5 7 C-4.00390625 5.17578125 -4.00390625 5.17578125 -2.5625 3.3125 C-2.08941406 2.68988281 -1.61632813 2.06726563 -1.12890625 1.42578125 C-0.75636719 0.95527344 -0.38382813 0.48476563 0 0 Z " fill="#1B1B1B" transform="translate(1028,642)"/>
<path d="M0 0 C0.66 0 1.32 0 2 0 C1.8864371 1.64666203 1.75882619 3.29236082 1.625 4.9375 C1.52058594 6.31228516 1.52058594 6.31228516 1.4140625 7.71484375 C1.27742188 8.46894531 1.14078125 9.22304688 1 10 C0.01 10.495 0.01 10.495 -1 11 C-0.67 7.37 -0.34 3.74 0 0 Z " fill="#1F1F1F" transform="translate(1068,538)"/>
<path d="M0 0 C-1.625 5.75 -1.625 5.75 -5 8 C-5.36625971 3.48279689 -5.36625971 3.48279689 -3.625 1.1875 C-2 0 -2 0 0 0 Z " fill="#ECECEC" transform="translate(696,811)"/>
<path d="M0 0 C1.64767247 0.28109113 3.29313145 0.57518526 4.9375 0.875 C5.85402344 1.03742187 6.77054688 1.19984375 7.71484375 1.3671875 C8.46894531 1.57601562 9.22304688 1.78484375 10 2 C10.33 2.66 10.66 3.32 11 4 C7.7 3.67 4.4 3.34 1 3 C0.67 2.01 0.34 1.02 0 0 Z " fill="#1A1A1A" transform="translate(576,698)"/>
<path d="M0 0 C5 2 5 2 10 4 C10 4.66 10 5.32 10 6 C6.05879291 5.43697042 3.2491277 4.3208055 0 2 C0 1.34 0 0.68 0 0 Z " fill="#1A1A1A" transform="translate(987,663)"/>
<path d="M0 0 C3.93673644 1.31224548 6.22719294 2.91910327 9 6 C5.21213403 5.4739075 2.82847776 4.61896089 0 2 C0 1.34 0 0.68 0 0 Z " fill="#1C1C1C" transform="translate(971,654)"/>
<path d="M0 0 C0.66 0 1.32 0 2 0 C1.67 3.3 1.34 6.6 1 10 C0.34 10 -0.32 10 -1 10 C-0.67 6.7 -0.34 3.4 0 0 Z " fill="#1D1D1D" transform="translate(682,637)"/>
<path d="M0 0 C0.99 0.495 0.99 0.495 2 1 C2.6328125 3.06640625 2.6328125 3.06640625 3.125 5.5625 C3.29257812 6.38878906 3.46015625 7.21507812 3.6328125 8.06640625 C3.75398437 8.70449219 3.87515625 9.34257813 4 10 C3.01 9.67 2.02 9.34 1 9 C0.67 6.03 0.34 3.06 0 0 Z " fill="#222222" transform="translate(522,726)"/>
<path d="M0 0 C0.66 0.33 1.32 0.66 2 1 C-0.97 4.96 -0.97 4.96 -4 9 C-4.33 8.01 -4.66 7.02 -5 6 C-3.59554165 3.7363436 -1.8032087 1.9791315 0 0 Z " fill="#141414" transform="translate(558,623)"/>
<path d="M0 0 C0.99 0.495 0.99 0.495 2 1 C2.59355614 3.64860427 2.74209269 6.29197322 3 9 C2.34 9 1.68 9 1 9 C0.67 6.03 0.34 3.06 0 0 Z " fill="#1C1C1C" transform="translate(800,703)"/>
</svg>
